<?xml version="1.0" encoding="UTF-8" standalone="no"?>
<!-- Created with Inkscape (http://www.inkscape.org/) -->
<svg
   xmlns:svg="http://www.w3.org/2000/svg"
   xmlns="http://www.w3.org/2000/svg"
   xmlns:xlink="http://www.w3.org/1999/xlink"
   version="1.0"
   width="527.33002"
   height="577.33002"
   id="svg8531">
  <defs
     id="defs8533">
    <radialGradient
       cx="275.1377"
       cy="611.72949"
       r="1.39002"
       fx="275.1377"
       fy="611.72949"
       id="radialGradient23177"
       xlink:href="#linearGradient4872"
       gradientUnits="userSpaceOnUse"
       gradientTransform="matrix(8.206998,-1.895163,2.027444,8.779754,-3224.542,-4232.645)" />
    <linearGradient
       x1="280.73401"
       y1="608.48547"
       x2="274.13013"
       y2="609.86316"
       id="linearGradient23175"
       xlink:href="#linearGradient10280"
       gradientUnits="userSpaceOnUse" />
    <radialGradient
       cx="275.1377"
       cy="611.72949"
       r="1.39002"
       fx="275.1377"
       fy="611.72949"
       id="radialGradient23173"
       xlink:href="#linearGradient4872"
       gradientUnits="userSpaceOnUse"
       gradientTransform="matrix(5.431122,-1.701916,1.341696,7.884491,-2658.006,-3682.674)" />
    <linearGradient
       x1="280.73401"
       y1="608.48547"
       x2="274.13013"
       y2="609.86316"
       id="linearGradient23171"
       xlink:href="#linearGradient10280"
       gradientUnits="userSpaceOnUse"
       gradientTransform="matrix(0.661767,0,0,0.898031,-524.1105,118.372)" />
    <radialGradient
       cx="275.1377"
       cy="611.72949"
       r="1.39002"
       fx="275.1377"
       fy="611.72949"
       id="radialGradient23169"
       xlink:href="#linearGradient4872"
       gradientUnits="userSpaceOnUse"
       gradientTransform="matrix(7.077231,-1.634277,1.748348,7.571142,-3352.734,-3515.756)" />
    <linearGradient
       x1="280.73401"
       y1="608.48547"
       x2="274.13013"
       y2="609.86316"
       id="linearGradient23167"
       xlink:href="#linearGradient10280"
       gradientUnits="userSpaceOnUse"
       gradientTransform="matrix(0.862341,0,0,0.862341,-572.0789,134.2276)" />
    <radialGradient
       cx="275.1377"
       cy="611.72949"
       r="1.39002"
       fx="275.1377"
       fy="611.72949"
       id="radialGradient23165"
       xlink:href="#linearGradient4872"
       gradientUnits="userSpaceOnUse"
       gradientTransform="matrix(5.431122,-1.701916,1.341696,7.884491,-2658.006,-3682.674)" />
    <linearGradient
       x1="280.73401"
       y1="608.48547"
       x2="274.13013"
       y2="609.86316"
       id="linearGradient23163"
       xlink:href="#linearGradient10280"
       gradientUnits="userSpaceOnUse"
       gradientTransform="matrix(0.661767,0,0,0.898031,-524.1105,118.372)" />
    <radialGradient
       cx="275.1377"
       cy="611.72949"
       r="1.39002"
       fx="275.1377"
       fy="611.72949"
       id="radialGradient23161"
       xlink:href="#linearGradient4872"
       gradientUnits="userSpaceOnUse"
       gradientTransform="matrix(7.077231,-1.634277,1.748348,7.571142,-3352.734,-3515.756)" />
    <linearGradient
       x1="280.73401"
       y1="608.48547"
       x2="274.13013"
       y2="609.86316"
       id="linearGradient23159"
       xlink:href="#linearGradient10280"
       gradientUnits="userSpaceOnUse"
       gradientTransform="matrix(0.862341,0,0,0.862341,-572.0789,134.2276)" />
    <radialGradient
       cx="275.1377"
       cy="611.72949"
       r="1.39002"
       fx="275.1377"
       fy="611.72949"
       id="radialGradient23157"
       xlink:href="#linearGradient4872"
       gradientUnits="userSpaceOnUse"
       gradientTransform="matrix(8.206998,-1.895163,2.027444,8.779754,-3224.542,-4232.645)" />
    <linearGradient
       x1="280.73401"
       y1="608.48547"
       x2="274.13013"
       y2="609.86316"
       id="linearGradient23155"
       xlink:href="#linearGradient10280"
       gradientUnits="userSpaceOnUse" />
    <linearGradient
       id="linearGradient9378">
      <stop
         style="stop-color:black;stop-opacity:1"
         offset="0"
         id="stop9380" />
      <stop
         style="stop-color:#d0c6a1;stop-opacity:1"
         offset="1"
         id="stop9382" />
    </linearGradient>
    <linearGradient
       x1="-221.18147"
       y1="1022.1509"
       x2="-221.18147"
       y2="71.522896"
       id="linearGradient2253"
       xlink:href="#linearGradient9378"
       gradientUnits="userSpaceOnUse"
       gradientTransform="translate(-288.3337,-264.1379)" />
    <linearGradient
       id="linearGradient23133">
      <stop
         style="stop-color:#68634f;stop-opacity:1"
         offset="0"
         id="stop23135" />
      <stop
         style="stop-color:#a0956c;stop-opacity:1"
         offset="0.8214286"
         id="stop23137" />
      <stop
         style="stop-color:#d2c8a3;stop-opacity:1"
         offset="1"
         id="stop23139" />
    </linearGradient>
    <linearGradient
       x1="-236.11186"
       y1="566.08087"
       x2="-372.40759"
       y2="664.12061"
       id="linearGradient2263"
       xlink:href="#linearGradient23133"
       gradientUnits="userSpaceOnUse"
       gradientTransform="matrix(-1,0,0,1,-733.1504,-264.1379)" />
    <radialGradient
       cx="275.1377"
       cy="611.72949"
       r="1.39002"
       fx="275.1377"
       fy="611.72949"
       id="radialGradient10540"
       xlink:href="#linearGradient4872"
       gradientUnits="userSpaceOnUse"
       gradientTransform="matrix(8.206998,-1.895163,2.027444,8.779754,-3224.542,-4232.645)" />
    <linearGradient
       x1="280.73401"
       y1="608.48547"
       x2="274.13013"
       y2="609.86316"
       id="linearGradient10538"
       xlink:href="#linearGradient10280"
       gradientUnits="userSpaceOnUse" />
    <radialGradient
       cx="275.1377"
       cy="611.72949"
       r="1.39002"
       fx="275.1377"
       fy="611.72949"
       id="radialGradient10536"
       xlink:href="#linearGradient4872"
       gradientUnits="userSpaceOnUse"
       gradientTransform="matrix(5.431122,-1.701916,1.341696,7.884491,-2658.006,-3682.674)" />
    <linearGradient
       x1="280.73401"
       y1="608.48547"
       x2="274.13013"
       y2="609.86316"
       id="linearGradient10534"
       xlink:href="#linearGradient10280"
       gradientUnits="userSpaceOnUse"
       gradientTransform="matrix(0.661767,0,0,0.898031,-524.1105,118.372)" />
    <radialGradient
       cx="275.1377"
       cy="611.72949"
       r="1.39002"
       fx="275.1377"
       fy="611.72949"
       id="radialGradient10532"
       xlink:href="#linearGradient4872"
       gradientUnits="userSpaceOnUse"
       gradientTransform="matrix(7.077231,-1.634277,1.748348,7.571142,-3352.734,-3515.756)" />
    <linearGradient
       x1="280.73401"
       y1="608.48547"
       x2="274.13013"
       y2="609.86316"
       id="linearGradient10530"
       xlink:href="#linearGradient10280"
       gradientUnits="userSpaceOnUse"
       gradientTransform="matrix(0.862341,0,0,0.862341,-572.0789,134.2276)" />
    <radialGradient
       cx="275.1377"
       cy="611.72949"
       r="1.39002"
       fx="275.1377"
       fy="611.72949"
       id="radialGradient10528"
       xlink:href="#linearGradient4872"
       gradientUnits="userSpaceOnUse"
       gradientTransform="matrix(5.431122,-1.701916,1.341696,7.884491,-2658.006,-3682.674)" />
    <linearGradient
       x1="280.73401"
       y1="608.48547"
       x2="274.13013"
       y2="609.86316"
       id="linearGradient10526"
       xlink:href="#linearGradient10280"
       gradientUnits="userSpaceOnUse"
       gradientTransform="matrix(0.661767,0,0,0.898031,-524.1105,118.372)" />
    <radialGradient
       cx="275.1377"
       cy="611.72949"
       r="1.39002"
       fx="275.1377"
       fy="611.72949"
       id="radialGradient10524"
       xlink:href="#linearGradient4872"
       gradientUnits="userSpaceOnUse"
       gradientTransform="matrix(7.077231,-1.634277,1.748348,7.571142,-3352.734,-3515.756)" />
    <linearGradient
       x1="280.73401"
       y1="608.48547"
       x2="274.13013"
       y2="609.86316"
       id="linearGradient10522"
       xlink:href="#linearGradient10280"
       gradientUnits="userSpaceOnUse"
       gradientTransform="matrix(0.862341,0,0,0.862341,-572.0789,134.2276)" />
    <radialGradient
       cx="275.1377"
       cy="611.72949"
       r="1.39002"
       fx="275.1377"
       fy="611.72949"
       id="radialGradient10520"
       xlink:href="#linearGradient4872"
       gradientUnits="userSpaceOnUse"
       gradientTransform="matrix(8.206998,-1.895163,2.027444,8.779754,-3224.542,-4232.645)" />
    <linearGradient
       x1="280.73401"
       y1="608.48547"
       x2="274.13013"
       y2="609.86316"
       id="linearGradient10518"
       xlink:href="#linearGradient10280"
       gradientUnits="userSpaceOnUse" />
    <linearGradient
       id="linearGradient4872">
      <stop
         style="stop-color:#928b70;stop-opacity:1"
         offset="0"
         id="stop4874" />
      <stop
         style="stop-color:#b6ae90;stop-opacity:1"
         offset="0.6785714"
         id="stop10306" />
      <stop
         style="stop-color:#e9e4d2;stop-opacity:1"
         offset="1"
         id="stop4876" />
    </linearGradient>
    <linearGradient
       x1="-256.84601"
       y1="623.21289"
       x2="-346.1962"
       y2="655.75867"
       id="linearGradient2290"
       xlink:href="#linearGradient4872"
       gradientUnits="userSpaceOnUse"
       gradientTransform="translate(-288.3337,-264.1379)" />
    <linearGradient
       id="linearGradient2883">
      <stop
         style="stop-color:black;stop-opacity:1"
         offset="0"
         id="stop2885" />
      <stop
         style="stop-color:black;stop-opacity:0"
         offset="1"
         id="stop2887" />
    </linearGradient>
    <linearGradient
       x1="-569.55615"
       y1="-1216.2813"
       x2="-762.88635"
       y2="-1216.2813"
       id="linearGradient8418"
       xlink:href="#linearGradient2883"
       gradientUnits="userSpaceOnUse"
       gradientTransform="translate(187.8868,-448.1205)" />
    <linearGradient
       id="linearGradient2891">
      <stop
         style="stop-color:black;stop-opacity:1"
         offset="0"
         id="stop2893" />
      <stop
         style="stop-color:black;stop-opacity:0"
         offset="1"
         id="stop2895" />
    </linearGradient>
    <linearGradient
       x1="-552.06201"
       y1="-1205.8823"
       x2="-715.9848"
       y2="-1205.8823"
       id="linearGradient8409"
       xlink:href="#linearGradient2891"
       gradientUnits="userSpaceOnUse"
       gradientTransform="translate(187.8868,-448.1205)" />
    <linearGradient
       id="linearGradient2899">
      <stop
         style="stop-color:black;stop-opacity:1"
         offset="0"
         id="stop2901" />
      <stop
         style="stop-color:black;stop-opacity:0"
         offset="1"
         id="stop2903" />
    </linearGradient>
    <linearGradient
       x1="-471.80408"
       y1="-1197.7834"
       x2="-654.14728"
       y2="-1197.7834"
       id="linearGradient8415"
       xlink:href="#linearGradient2899"
       gradientUnits="userSpaceOnUse"
       gradientTransform="translate(187.8868,-448.1205)" />
    <linearGradient
       x1="-782.13568"
       y1="-1205.5313"
       x2="-715.98438"
       y2="-1205.5313"
       id="linearGradient8439"
       xlink:href="#linearGradient16170"
       gradientUnits="userSpaceOnUse"
       gradientTransform="translate(187.8868,-448.1205)" />
    <linearGradient
       x1="-748.68311"
       y1="-1200.8772"
       x2="-654.12817"
       y2="-1200.8772"
       id="linearGradient8445"
       xlink:href="#linearGradient16170"
       gradientUnits="userSpaceOnUse"
       gradientTransform="translate(187.8868,-448.1205)" />
    <linearGradient
       id="linearGradient16203">
      <stop
         style="stop-color:white;stop-opacity:0.61855668"
         offset="0"
         id="stop16205" />
      <stop
         style="stop-color:white;stop-opacity:0"
         offset="1"
         id="stop16207" />
    </linearGradient>
    <linearGradient
       x1="-840.323"
       y1="-1216.2813"
       x2="-766.11829"
       y2="-1216.2813"
       id="linearGradient8448"
       xlink:href="#linearGradient16203"
       gradientUnits="userSpaceOnUse"
       gradientTransform="translate(187.8868,-448.1205)" />
    <linearGradient
       id="linearGradient2923">
      <stop
         style="stop-color:black;stop-opacity:1"
         offset="0"
         id="stop2925" />
      <stop
         style="stop-color:black;stop-opacity:0"
         offset="1"
         id="stop2927" />
    </linearGradient>
    <linearGradient
       x1="-353.41895"
       y1="-1191.5961"
       x2="-535.34375"
       y2="-1191.5961"
       id="linearGradient8394"
       xlink:href="#linearGradient2923"
       gradientUnits="userSpaceOnUse"
       gradientTransform="translate(187.8868,-448.1205)" />
    <linearGradient
       id="linearGradient2915">
      <stop
         style="stop-color:black;stop-opacity:1"
         offset="0"
         id="stop2917" />
      <stop
         style="stop-color:black;stop-opacity:0"
         offset="1"
         id="stop2919" />
    </linearGradient>
    <linearGradient
       x1="-452.20895"
       y1="-1177.1588"
       x2="-588.96301"
       y2="-1177.1588"
       id="linearGradient8397"
       xlink:href="#linearGradient2915"
       gradientUnits="userSpaceOnUse"
       gradientTransform="translate(187.8868,-448.1205)" />
    <linearGradient
       id="linearGradient2931">
      <stop
         style="stop-color:black;stop-opacity:1"
         offset="0"
         id="stop2933" />
      <stop
         style="stop-color:black;stop-opacity:0"
         offset="1"
         id="stop2935" />
    </linearGradient>
    <linearGradient
       x1="-284.28323"
       y1="-1196.7522"
       x2="-471.96875"
       y2="-1196.7522"
       id="linearGradient8400"
       xlink:href="#linearGradient2931"
       gradientUnits="userSpaceOnUse"
       gradientTransform="translate(187.8868,-448.1205)" />
    <linearGradient
       id="linearGradient2939">
      <stop
         style="stop-color:black;stop-opacity:1"
         offset="0"
         id="stop2941" />
      <stop
         style="stop-color:black;stop-opacity:0"
         offset="1"
         id="stop2943" />
    </linearGradient>
    <linearGradient
       x1="-196.84587"
       y1="-1200.8772"
       x2="-405.39578"
       y2="-1200.8772"
       id="linearGradient8403"
       xlink:href="#linearGradient2939"
       gradientUnits="userSpaceOnUse"
       gradientTransform="translate(187.8868,-448.1205)" />
    <linearGradient
       id="linearGradient2947">
      <stop
         style="stop-color:black;stop-opacity:1"
         offset="0"
         id="stop2949" />
      <stop
         style="stop-color:black;stop-opacity:0"
         offset="1"
         id="stop2951" />
    </linearGradient>
    <linearGradient
       x1="-159.83902"
       y1="-1206.0333"
       x2="-353.42252"
       y2="-1206.0333"
       id="linearGradient8406"
       xlink:href="#linearGradient2947"
       gradientUnits="userSpaceOnUse"
       gradientTransform="translate(187.8868,-448.1205)" />
    <linearGradient
       id="linearGradient2955">
      <stop
         style="stop-color:black;stop-opacity:1"
         offset="0"
         id="stop2957" />
      <stop
         style="stop-color:black;stop-opacity:0"
         offset="1"
         id="stop2959" />
    </linearGradient>
    <linearGradient
       x1="-170.05681"
       y1="-1203.9708"
       x2="-294.56607"
       y2="-1203.9708"
       id="linearGradient8412"
       xlink:href="#linearGradient2955"
       gradientUnits="userSpaceOnUse"
       gradientTransform="translate(187.8868,-448.1205)" />
    <linearGradient
       x1="-604.32312"
       y1="-1203.5938"
       x2="-535.34375"
       y2="-1203.5938"
       id="linearGradient8424"
       xlink:href="#linearGradient16170"
       gradientUnits="userSpaceOnUse"
       gradientTransform="translate(187.8868,-448.1205)" />
    <linearGradient
       id="linearGradient2971">
      <stop
         style="stop-color:black;stop-opacity:1"
         offset="0"
         id="stop2973" />
      <stop
         style="stop-color:black;stop-opacity:0"
         offset="1"
         id="stop2975" />
    </linearGradient>
    <linearGradient
       x1="-100.99277"
       y1="-1203.9708"
       x2="-252.74492"
       y2="-1203.9708"
       id="linearGradient8421"
       xlink:href="#linearGradient2971"
       gradientUnits="userSpaceOnUse"
       gradientTransform="translate(187.8868,-448.1205)" />
    <linearGradient
       x1="-705.83704"
       y1="-1196.5781"
       x2="-589.83203"
       y2="-1196.5781"
       id="linearGradient8427"
       xlink:href="#linearGradient16170"
       gradientUnits="userSpaceOnUse"
       gradientTransform="translate(187.8868,-448.1205)" />
    <linearGradient
       x1="-527.35461"
       y1="-1202.5156"
       x2="-471.96875"
       y2="-1202.5156"
       id="linearGradient8430"
       xlink:href="#linearGradient16170"
       gradientUnits="userSpaceOnUse"
       gradientTransform="translate(187.8868,-448.1205)" />
    <linearGradient
       x1="-495.4791"
       y1="-1202.4219"
       x2="-402.67575"
       y2="-1202.4219"
       id="linearGradient8433"
       xlink:href="#linearGradient16170"
       gradientUnits="userSpaceOnUse"
       gradientTransform="translate(187.8868,-448.1205)" />
    <linearGradient
       x1="-452.38504"
       y1="-1204.2789"
       x2="-346.23825"
       y2="-1205.3102"
       id="linearGradient8436"
       xlink:href="#linearGradient16170"
       gradientUnits="userSpaceOnUse"
       gradientTransform="translate(187.8868,-448.1205)" />
    <linearGradient
       x1="-356.82324"
       y1="-1198.6406"
       x2="-300.33194"
       y2="-1199.6719"
       id="linearGradient8442"
       xlink:href="#linearGradient16170"
       gradientUnits="userSpaceOnUse"
       gradientTransform="translate(187.8868,-448.1205)" />
    <linearGradient
       x1="-308.86652"
       y1="-1212.4688"
       x2="-252.73689"
       y2="-1212.4688"
       id="linearGradient8451"
       xlink:href="#linearGradient16170"
       gradientUnits="userSpaceOnUse"
       gradientTransform="translate(187.8868,-448.1205)" />
    <linearGradient
       x1="-1672.4349"
       y1="-1834.4158"
       x2="-1752.697"
       y2="-1735.3405"
       id="linearGradient8381"
       xlink:href="#linearGradient16170"
       gradientUnits="userSpaceOnUse"
       gradientTransform="matrix(-1.147179,0,0,1.490357,-2564.97,1016.778)" />
    <linearGradient
       x1="-1782.6057"
       y1="-1668.4532"
       x2="-1670.5609"
       y2="-1556.4084"
       id="linearGradient8384"
       xlink:href="#linearGradient10280"
       gradientUnits="userSpaceOnUse"
       gradientTransform="matrix(1.222271,0,0,1.587912,2061.095,1186.377)" />
    <linearGradient
       id="linearGradient10280">
      <stop
         style="stop-color:black;stop-opacity:0"
         offset="0"
         id="stop10282" />
      <stop
         style="stop-color:black;stop-opacity:0.39215687"
         offset="0.71428573"
         id="stop2397" />
      <stop
         style="stop-color:black;stop-opacity:0.67010307"
         offset="1"
         id="stop10284" />
    </linearGradient>
    <linearGradient
       x1="-1935.7411"
       y1="-1719.5646"
       x2="-1935.7411"
       y2="-1575.5452"
       id="linearGradient8387"
       xlink:href="#linearGradient10280"
       gradientUnits="userSpaceOnUse"
       gradientTransform="matrix(1.237289,0,0,1.607423,2090.405,1219.783)" />
    <linearGradient
       id="linearGradient16170">
      <stop
         style="stop-color:white;stop-opacity:0.627451"
         offset="0"
         id="stop16172" />
      <stop
         style="stop-color:#e6e6e6;stop-opacity:0"
         offset="1"
         id="stop16174" />
    </linearGradient>
    <linearGradient
       x1="-1672.4349"
       y1="-1834.4158"
       x2="-1752.697"
       y2="-1735.3405"
       id="linearGradient8390"
       xlink:href="#linearGradient16170"
       gradientUnits="userSpaceOnUse"
       gradientTransform="matrix(1.201245,0,0,1.560596,2020.06,1139.609)" />
    <linearGradient
       x1="-564.33624"
       y1="-44.970432"
       x2="-564.33624"
       y2="-50.373146"
       id="linearGradient2335"
       xlink:href="#linearGradient11439"
       gradientUnits="userSpaceOnUse" />
    <linearGradient
       id="linearGradient11439">
      <stop
         style="stop-color:#857742;stop-opacity:1"
         offset="0"
         id="stop11441" />
      <stop
         style="stop-color:#d0c6a1;stop-opacity:1"
         offset="1"
         id="stop11443" />
    </linearGradient>
    <linearGradient
       x1="-511.05295"
       y1="-69.419479"
       x2="-513.41382"
       y2="-69.419479"
       id="linearGradient2338"
       xlink:href="#linearGradient11439"
       gradientUnits="userSpaceOnUse" />
  </defs>
  <g
     transform="translate(-15.69377,-28.26363)"
     id="layer1">
    <g
       transform="matrix(0.826736,0,0,0.826736,702.4171,173.9066)"
       id="g8481">
      <path
         d="M -512.4915,-156.93567 L -510.47722,-156.93567 L -506.7382,338.6386 L -515.36767,338.6386 L -512.4915,-156.93567 z "
         style="fill:url(#linearGradient2338);fill-opacity:1;stroke:#045;stroke-width:0.11029906;stroke-miterlimit:4;stroke-opacity:1"
         id="rect10513" />
      <path
         d="M -212.16591,-50.310645 L -212.16591,-45.037353 L -809.93997,-45.037353 L -809.93997,-50.310645 L -212.16591,-50.310645 z "
         style="fill:url(#linearGradient2335);fill-opacity:1;stroke:#045;stroke-width:0.09469672;stroke-miterlimit:4;stroke-opacity:1"
         id="path10516" />
      <g
         transform="translate(-186.552,1650.784)"
         id="g8453">
        <path
           d="M -324.29495,-1364.7993 C -69.706846,-1364.883 -72.857346,-1401.4596 -72.857446,-1401.4598 C -72.857546,-1401.4596 -97.035146,-1419.0366 -39.107446,-1699.8986 C -39.107446,-1699.8986 -79.286936,-1692.0568 -88.134196,-1694.3686 C -98.683036,-1691.7323 -116.50098,-1687.751 -137.0547,-1695.0893 C -151.48187,-1685.1215 -188.95649,-1690.9923 -193.54475,-1692.5261 C -209.33186,-1685.4248 -249.43772,-1691.3899 -253.04181,-1693.6359 C -266.60483,-1686.9741 -304.04781,-1687.1427 -314.84367,-1691.8479 C -327.77883,-1688.8334 -366.03753,-1685.7983 -378.95368,-1692.8256 C -391.51784,-1685.6784 -424.37511,-1690.4764 -436.05526,-1692.9191 C -457.4745,-1686.9443 -484.78973,-1691.458 -494.87574,-1694.9936 C -511.28102,-1689.0535 -541.9544,-1691.4903 -560.52919,-1694.9322 C -592.25513,-1689.6844 -609.48245,-1699.8986 -609.48245,-1699.8986 C -551.55475,-1419.0366 -575.73225,-1401.4596 -575.73245,-1401.4598 C -575.73235,-1401.4596 -578.88295,-1364.883 -324.29495,-1364.7993 z "
           style="fill:#ececec;fill-opacity:1;stroke:#045;stroke-width:0.22796044;stroke-miterlimit:4;stroke-opacity:1"
           id="path8030" />
        <path
           d="M -137.44171,-1695.1447 C -137.56315,-1695.0607 -137.69203,-1694.9763 -137.81671,-1694.8947 L -137.81671,-1375.7072 C -108.85088,-1380.4603 -92.879825,-1386.0295 -84.066705,-1390.7697 L -84.066705,-1693.9884 C -85.910115,-1694.0042 -87.441285,-1694.1482 -88.504205,-1694.4259 C -99.053035,-1691.7897 -116.88799,-1687.8063 -137.44171,-1695.1447 z M -560.91046,-1694.9884 C -562.54452,-1694.7181 -564.13494,-1694.4927 -565.69171,-1694.3009 L -565.69171,-1391.2697 C -557.22961,-1386.4688 -541.37101,-1380.7407 -511.94171,-1375.8322 L -511.94171,-1691.8634 C -527.99646,-1690.5668 -547.56879,-1692.5162 -560.91046,-1694.9884 z M -436.44171,-1692.9572 C -443.56834,-1690.9692 -451.33021,-1690.1702 -458.91046,-1690.0822 L -458.91046,-1369.4884 C -448.86072,-1368.6556 -437.97628,-1367.9069 -426.12921,-1367.2697 C -423.31024,-1367.118 -420.43012,-1366.9712 -417.50421,-1366.8322 C -414.5783,-1366.6931 -411.60155,-1366.5832 -408.56671,-1366.4572 C -407.46328,-1366.4113 -406.30972,-1366.3762 -405.19171,-1366.3322 L -405.19171,-1689.2072 C -417.42245,-1689.6232 -430.07718,-1691.6261 -436.44171,-1692.9572 z M -193.91046,-1692.5822 C -205.68307,-1687.2866 -230.96846,-1689.2437 -244.56671,-1691.5197 L -244.56671,-1366.3009 C -224.38011,-1367.0908 -206.55767,-1368.1621 -190.84796,-1369.4572 L -190.84796,-1691.8634 C -192.28332,-1692.1427 -193.35115,-1692.3952 -193.91046,-1692.5822 z M -315.22296,-1691.8947 C -322.47258,-1690.2051 -337.67157,-1688.5095 -351.91046,-1688.5822 L -351.91046,-1364.9884 C -343.15945,-1364.8885 -334.108,-1364.8665 -324.66046,-1364.8634 C -315.37111,-1364.8665 -306.4637,-1364.8917 -297.84796,-1364.9884 L -297.84796,-1688.8322 C -305.2968,-1689.3212 -311.69762,-1690.3582 -315.22296,-1691.8947 z "
           style="fill:#d40000;fill-opacity:1;stroke:none;stroke-width:0.2;stroke-miterlimit:4;stroke-opacity:1"
           id="path8172" />
        <path
           d="M -609.46875,-1699.9063 C -551.54108,-1419.0443 -575.71855,-1401.4685 -575.71875,-1401.4688 C -575.71868,-1401.4685 -578.86925,-1364.8962 -324.28125,-1364.8125 C -69.693144,-1364.8962 -72.84365,-1401.4685 -72.84375,-1401.4688 C -72.843851,-1401.4685 -97.02145,-1419.0443 -39.09375,-1699.9063 C -39.093751,-1699.9063 -79.27774,-1692.0632 -88.125,-1694.375 C -98.673843,-1691.7386 -116.50878,-1687.7555 -137.0625,-1695.0938 C -151.48967,-1685.1259 -188.94299,-1690.9974 -193.53125,-1692.5313 C -209.31836,-1685.4299 -249.42716,-1691.379 -253.03125,-1693.625 C -266.59427,-1686.9632 -304.04789,-1687.1385 -314.84375,-1691.8438 C -327.77892,-1688.8292 -366.0526,-1685.7852 -378.96875,-1692.8125 C -391.53292,-1685.6653 -424.38235,-1690.4635 -436.0625,-1692.9063 C -457.48173,-1686.9315 -484.78899,-1691.4644 -494.875,-1695 C -511.28029,-1689.0598 -541.95646,-1691.4956 -560.53125,-1694.9375 C -592.25721,-1689.6896 -609.46875,-1699.9063 -609.46875,-1699.9063 z "
           style="fill:url(#linearGradient8390);fill-opacity:1;stroke:none;stroke-width:0.2;stroke-miterlimit:4;stroke-opacity:1"
           id="path8034" />
        <path
           d="M -609.46875,-1699.9063 C -551.54108,-1419.0443 -575.71855,-1401.4685 -575.71875,-1401.4688 C -575.71868,-1401.4685 -578.86925,-1364.8962 -324.28125,-1364.8125 C -69.693144,-1364.8962 -72.84365,-1401.4685 -72.84375,-1401.4688 C -72.843851,-1401.4685 -97.02145,-1419.0443 -39.09375,-1699.9063 C -39.093751,-1699.9063 -79.27774,-1692.0632 -88.125,-1694.375 C -98.673843,-1691.7386 -116.50878,-1687.7555 -137.0625,-1695.0938 C -151.48967,-1685.1259 -188.94299,-1690.9974 -193.53125,-1692.5313 C -209.31836,-1685.4299 -249.42716,-1691.379 -253.03125,-1693.625 C -266.59427,-1686.9632 -304.04789,-1687.1385 -314.84375,-1691.8438 C -327.77892,-1688.8292 -366.0526,-1685.7852 -378.96875,-1692.8125 C -391.53292,-1685.6653 -424.38235,-1690.4635 -436.0625,-1692.9063 C -457.48173,-1686.9315 -484.78899,-1691.4644 -494.875,-1695 C -511.28029,-1689.0598 -541.95646,-1691.4956 -560.53125,-1694.9375 C -592.25721,-1689.6896 -609.46875,-1699.9063 -609.46875,-1699.9063 z "
           style="fill:url(#linearGradient8387);fill-opacity:1;stroke:none;stroke-width:0.2;stroke-miterlimit:4;stroke-opacity:1"
           id="path8036" />
        <path
           d="M -609.46875,-1699.9063 C -551.54108,-1419.0443 -575.71855,-1401.4685 -575.71875,-1401.4688 C -575.71868,-1401.4685 -578.86925,-1364.8962 -324.28125,-1364.8125 C -69.693144,-1364.8962 -72.84365,-1401.4685 -72.84375,-1401.4688 C -72.843851,-1401.4685 -97.02145,-1419.0443 -39.09375,-1699.9063 C -39.093751,-1699.9063 -79.27774,-1692.0632 -88.125,-1694.375 C -98.673843,-1691.7386 -116.50878,-1687.7555 -137.0625,-1695.0938 C -151.48967,-1685.1259 -188.94299,-1690.9974 -193.53125,-1692.5313 C -209.31836,-1685.4299 -249.42716,-1691.379 -253.03125,-1693.625 C -266.59427,-1686.9632 -304.04789,-1687.1385 -314.84375,-1691.8438 C -327.77892,-1688.8292 -366.0526,-1685.7852 -378.96875,-1692.8125 C -391.53292,-1685.6653 -424.38235,-1690.4635 -436.0625,-1692.9063 C -457.48173,-1686.9315 -484.78899,-1691.4644 -494.875,-1695 C -511.28029,-1689.0598 -541.95646,-1691.4956 -560.53125,-1694.9375 C -592.25721,-1689.6896 -609.46875,-1699.9063 -609.46875,-1699.9063 z "
           style="fill:url(#linearGradient8384);fill-opacity:1;stroke:none;stroke-width:0.2;stroke-miterlimit:4;stroke-opacity:1"
           id="path8038" />
        <path
           d="M -609.46875,-1699.9063 C -551.54108,-1419.0443 -575.71855,-1401.4685 -575.71875,-1401.4688 C -575.71868,-1401.4685 -578.86925,-1364.8962 -324.28125,-1364.8125 C -69.693144,-1364.8962 -72.84365,-1401.4685 -72.84375,-1401.4688 C -72.843851,-1401.4685 -97.02145,-1419.0443 -39.09375,-1699.9063 C -39.093751,-1699.9063 -79.27774,-1692.0632 -88.125,-1694.375 C -98.673843,-1691.7386 -116.50878,-1687.7555 -137.0625,-1695.0938 C -151.48967,-1685.1259 -188.94299,-1690.9974 -193.53125,-1692.5313 C -209.31836,-1685.4299 -249.42716,-1691.379 -253.03125,-1693.625 C -266.59427,-1686.9632 -304.04789,-1687.1385 -314.84375,-1691.8438 C -327.77892,-1688.8292 -366.0526,-1685.7852 -378.96875,-1692.8125 C -391.53292,-1685.6653 -424.38235,-1690.4635 -436.0625,-1692.9063 C -457.48173,-1686.9315 -484.78899,-1691.4644 -494.875,-1695 C -511.28029,-1689.0598 -541.95646,-1691.4956 -560.53125,-1694.9375 C -592.25721,-1689.6896 -609.46875,-1699.9063 -609.46875,-1699.9063 z "
           style="fill:url(#linearGradient8381);fill-opacity:1;stroke:none;stroke-width:0.2;stroke-miterlimit:4;stroke-opacity:1"
           id="path8040" />
        <path
           d="M -43.26945,-1699.2143 C -51.35555,-1697.7054 -76.14703,-1693.2863 -86.20695,-1694.058 C -86.65989,-1676.0977 -87.29819,-1621.9643 -78.39445,-1621.9643 C -68.43018,-1621.9643 -45.00097,-1693.8557 -43.26945,-1699.2143 z "
           style="fill:url(#linearGradient8451);fill-rule:evenodd;stroke:none;stroke-width:0.77274448px;stroke-linecap:butt;stroke-linejoin:miter;stroke-opacity:1"
           id="path8176" />
        <path
           d="M -135.5507,-1694.4955 C -135.23623,-1685.9775 -131.84627,-1601.0892 -121.0507,-1601.0893 C -110.73569,-1601.0893 -92.49296,-1683.2133 -90.14445,-1693.9955 C -100.50279,-1691.4738 -116.7685,-1688.3532 -135.5507,-1694.4955 z "
           style="fill:url(#linearGradient8442);fill-rule:evenodd;stroke:none;stroke-width:0.77274448px;stroke-linecap:butt;stroke-linejoin:miter;stroke-opacity:1"
           id="path8182" />
        <path
           d="M -139.14445,-1694.0893 C -153.22591,-1686.3765 -183.28225,-1690.189 -191.9257,-1692.058 C -191.02992,-1686.0149 -180.10786,-1614.1577 -167.45695,-1614.8393 C -155.55581,-1615.4804 -141.16787,-1684.1502 -139.14445,-1694.0893 z "
           style="fill:url(#linearGradient8436);fill-rule:evenodd;stroke:none;stroke-width:0.77274448px;stroke-linecap:butt;stroke-linejoin:miter;stroke-opacity:1"
           id="path8186" />
        <path
           d="M -251.51945,-1692.9955 C -251.0471,-1690.1893 -237.12099,-1608.0893 -223.4257,-1608.0893 C -210.62733,-1608.0892 -197.03067,-1683.6447 -195.58195,-1691.9018 C -210.80646,-1686.4218 -243.08162,-1690.5605 -251.51945,-1692.9955 z "
           style="fill:url(#linearGradient8433);fill-rule:evenodd;stroke:none;stroke-width:0.77274448px;stroke-linecap:butt;stroke-linejoin:miter;stroke-opacity:1"
           id="path8188" />
        <path
           d="M -255.89445,-1692.6205 C -269.84327,-1687.494 -299.62725,-1687.43 -312.26945,-1690.9018 C -309.63671,-1676.2351 -296.82685,-1608.6518 -284.20695,-1608.6518 C -271.14462,-1608.6517 -257.24218,-1685.037 -255.89445,-1692.6205 z "
           style="fill:url(#linearGradient8430);fill-rule:evenodd;stroke:none;stroke-width:0.77274448px;stroke-linecap:butt;stroke-linejoin:miter;stroke-opacity:1"
           id="path8190" />
        <path
           d="M -434.6757,-1692.4955 C -434.67568,-1692.4955 -421.21747,-1596.9018 -408.08195,-1596.9018 C -395.61938,-1596.9017 -382.31722,-1687.5527 -381.70695,-1691.7455 C -394.76415,-1686.613 -421.76159,-1690.1372 -434.14445,-1692.4955 L -434.6757,-1692.4955 z "
           style="fill:url(#linearGradient8427);fill-rule:evenodd;stroke:none;stroke-width:0.77274448px;stroke-linecap:butt;stroke-linejoin:miter;stroke-opacity:1"
           id="path8192" />
        <path
           d="M -43.26945,-1699.2143 C -51.35555,-1697.7054 -76.14703,-1693.2863 -86.20695,-1694.058 C -86.65989,-1676.0977 -87.29819,-1621.9643 -78.39445,-1621.9643 C -68.43018,-1621.9643 -45.00097,-1693.8557 -43.26945,-1699.2143 z "
           style="fill:url(#linearGradient8421);fill-opacity:1;fill-rule:evenodd;stroke:none;stroke-width:0.77274448px;stroke-linecap:butt;stroke-linejoin:miter;stroke-opacity:1"
           id="path8196" />
        <path
           d="M -376.8632,-1691.7455 C -375.32011,-1683.6176 -361.26176,-1611.683 -347.3632,-1611.683 C -334.10617,-1611.683 -320.0469,-1681.082 -318.0507,-1691.2768 C -332.10875,-1688.665 -363.12923,-1686.5546 -376.8632,-1691.7455 z "
           style="fill:url(#linearGradient8424);fill-rule:evenodd;stroke:none;stroke-width:0.77274448px;stroke-linecap:butt;stroke-linejoin:miter;stroke-opacity:1"
           id="path8194" />
        <path
           d="M -135.5507,-1694.4955 C -135.23623,-1685.9775 -131.84627,-1601.0892 -121.0507,-1601.0893 C -110.73569,-1601.0893 -92.49296,-1683.2133 -90.14445,-1693.9955 C -100.50279,-1691.4738 -116.7685,-1688.3532 -135.5507,-1694.4955 z "
           style="fill:url(#linearGradient8412);fill-opacity:1;fill-rule:evenodd;stroke:none;stroke-width:0.77274448px;stroke-linecap:butt;stroke-linejoin:miter;stroke-opacity:1"
           id="path8202" />
        <path
           d="M -139.14445,-1694.0893 C -153.22591,-1686.3765 -183.28225,-1690.189 -191.9257,-1692.058 C -191.02992,-1686.0149 -180.10786,-1614.1577 -167.45695,-1614.8393 C -155.55581,-1615.4804 -141.16787,-1684.1502 -139.14445,-1694.0893 z "
           style="fill:url(#linearGradient8406);fill-opacity:1;fill-rule:evenodd;stroke:none;stroke-width:0.77274448px;stroke-linecap:butt;stroke-linejoin:miter;stroke-opacity:1"
           id="path8206" />
        <path
           d="M -251.51945,-1692.9955 C -251.0471,-1690.1893 -237.12099,-1608.0893 -223.4257,-1608.0893 C -210.62733,-1608.0892 -197.03067,-1683.6447 -195.58195,-1691.9018 C -210.80646,-1686.4218 -243.08162,-1690.5605 -251.51945,-1692.9955 z "
           style="fill:url(#linearGradient8403);fill-opacity:1;fill-rule:evenodd;stroke:none;stroke-width:0.77274448px;stroke-linecap:butt;stroke-linejoin:miter;stroke-opacity:1"
           id="path8208" />
        <path
           d="M -255.89445,-1692.6205 C -269.84327,-1687.494 -299.62725,-1687.43 -312.26945,-1690.9018 C -309.63671,-1676.2351 -296.82685,-1608.6518 -284.20695,-1608.6518 C -271.14462,-1608.6517 -257.24218,-1685.037 -255.89445,-1692.6205 z "
           style="fill:url(#linearGradient8400);fill-opacity:1;fill-rule:evenodd;stroke:none;stroke-width:0.77274448px;stroke-linecap:butt;stroke-linejoin:miter;stroke-opacity:1"
           id="path8210" />
        <path
           d="M -434.6757,-1692.4955 C -434.67568,-1692.4955 -421.21747,-1596.9018 -408.08195,-1596.9018 C -395.61938,-1596.9017 -382.31722,-1687.5527 -381.70695,-1691.7455 C -394.76415,-1686.613 -421.76159,-1690.1372 -434.14445,-1692.4955 L -434.6757,-1692.4955 z "
           style="fill:url(#linearGradient8397);fill-opacity:1;fill-rule:evenodd;stroke:none;stroke-width:0.77274448px;stroke-linecap:butt;stroke-linejoin:miter;stroke-opacity:1"
           id="path8212" />
        <path
           d="M -376.8632,-1691.7455 C -375.32011,-1683.6176 -361.26176,-1611.683 -347.3632,-1611.683 C -334.10617,-1611.683 -320.0469,-1681.082 -318.0507,-1691.2768 C -332.10875,-1688.665 -363.12923,-1686.5546 -376.8632,-1691.7455 z "
           style="fill:url(#linearGradient8394);fill-opacity:1;fill-rule:evenodd;stroke:none;stroke-width:0.77274448px;stroke-linecap:butt;stroke-linejoin:miter;stroke-opacity:1"
           id="path8214" />
        <path
           d="M -607.70695,-1698.8705 C -598.73313,-1674.8259 -580.78687,-1629.933 -571.83195,-1629.933 C -563.63294,-1629.933 -562.89027,-1669.8964 -563.20695,-1694.6205 C -587.16123,-1691.1425 -602.39227,-1696.4849 -607.70695,-1698.8705 z "
           style="fill:url(#linearGradient8448);fill-rule:evenodd;stroke:none;stroke-width:0.77274448px;stroke-linecap:butt;stroke-linejoin:miter;stroke-opacity:1"
           id="path8178" />
        <path
           d="M -494.45695,-1694.7768 C -493.29163,-1684.6436 -483.22179,-1600.655 -469.95695,-1600.1518 C -457.11368,-1599.6645 -440.14337,-1682.1119 -438.0507,-1692.5268 C -458.69603,-1687.3434 -484.10909,-1691.3761 -494.45695,-1694.7768 z "
           style="fill:url(#linearGradient8445);fill-opacity:1;fill-rule:evenodd;stroke:none;stroke-width:0.77274448px;stroke-linecap:butt;stroke-linejoin:miter;stroke-opacity:1"
           id="path8180" />
        <path
           d="M -557.76945,-1694.433 C -555.5172,-1682.5816 -541.72491,-1612.8705 -528.0507,-1612.8705 C -514.97383,-1612.8705 -501.04643,-1680.6305 -498.4257,-1694.0268 C -514.40477,-1689.6673 -540.26119,-1691.5043 -557.76945,-1694.433 z "
           style="fill:url(#linearGradient8439);fill-rule:evenodd;stroke:none;stroke-width:0.77274448px;stroke-linecap:butt;stroke-linejoin:miter;stroke-opacity:1"
           id="path8184" />
        <path
           d="M -494.45695,-1694.7768 C -493.29163,-1684.6436 -483.22179,-1600.655 -469.95695,-1600.1518 C -457.11368,-1599.6645 -440.14337,-1682.1119 -438.0507,-1692.5268 C -458.69603,-1687.3434 -484.10909,-1691.3761 -494.45695,-1694.7768 z "
           style="fill:url(#linearGradient8415);fill-opacity:1;fill-rule:evenodd;stroke:none;stroke-width:0.77274448px;stroke-linecap:butt;stroke-linejoin:miter;stroke-opacity:1"
           id="path8200" />
        <path
           d="M -557.76945,-1694.433 C -555.5172,-1682.5816 -541.72491,-1612.8705 -528.0507,-1612.8705 C -514.97383,-1612.8705 -501.04643,-1680.6305 -498.4257,-1694.0268 C -514.40477,-1689.6673 -540.26119,-1691.5043 -557.76945,-1694.433 z "
           style="fill:url(#linearGradient8409);fill-opacity:1;fill-rule:evenodd;stroke:none;stroke-width:0.77274448px;stroke-linecap:butt;stroke-linejoin:miter;stroke-opacity:1"
           id="path8204" />
        <path
           d="M -607.70695,-1698.8705 C -598.73313,-1674.8259 -580.78687,-1629.933 -571.83195,-1629.933 C -563.63294,-1629.933 -562.89027,-1669.8964 -563.20695,-1694.6205 C -587.16123,-1691.1425 -602.39227,-1696.4849 -607.70695,-1698.8705 z "
           style="fill:url(#linearGradient8418);fill-opacity:1;fill-rule:evenodd;stroke:none;stroke-width:0.77274448px;stroke-linecap:butt;stroke-linejoin:miter;stroke-opacity:1"
           id="path8198" />
      </g>
      <path
         d="M -516.20659,473.39663 C -516.60471,478.05931 -516.92696,480.46221 -520.14409,478.02163 C -521.60246,476.91528 -522.08874,476.36638 -521.98759,474.83455 C -522.90175,475.73472 -523.65363,476.06814 -524.48784,475.24038 C -527.98441,471.77076 -528.7799,471.87543 -528.02537,470.41071 C -531.03241,471.98773 -534.69944,469.01914 -535.70137,467.8429 C -537.18232,468.7458 -538.56301,467.83976 -540.80034,466.74038 C -542.43321,466.21265 -544.11655,464.50476 -545.26938,462.97489 C -547.78202,464.26307 -549.11059,462.55124 -551.86284,461.64663 C -554.32051,460.83884 -554.71634,459.47003 -554.27274,458.24277 C -554.94987,460.4338 -563.89176,458.70727 -565.89833,455.00197 C -566.21057,455.75504 -576.53965,453.34534 -581.06256,450.01378 C -581.78869,450.76564 -596.49665,449.16455 -598.5223,445.34046 C -599.26823,446.07622 -604.7277,444.78153 -606.64943,442.12173 C -607.42774,442.9291 -616.43273,437.93893 -617.86656,432.61976 C -618.31821,432.8059 -623.99923,427.96148 -624.01408,423.53918 C -624.47679,423.74305 -628.76001,419.02112 -630.2101,414.52577 C -631.03369,414.67226 -634.1678,407.90088 -633.34941,401.26644 C -634.07189,401.12001 -634.37105,392.42344 -631.91618,384.53471 C -632.48025,384.44124 -633.20145,365.7518 -624.05034,359.08413 C -536.17968,295.05998 -529.64462,185.04871 -511.55034,113.33413 L -516.20659,473.39663 z "
         style="fill:#847e66;fill-opacity:1;fill-rule:evenodd;stroke:#045;stroke-width:1px;stroke-linecap:butt;stroke-linejoin:miter;stroke-opacity:0.36842107"
         id="path10419" />
      <path
         d="M -510.96906,112.58555 C -529.06335,184.30013 -535.59154,294.32372 -623.4622,358.34787 C -632.61327,365.01551 -632.37626,384.17924 -632.09475,383.75178 C -631.41007,382.71213 -628.7978,378.52136 -625.82823,376.30534 C -544.88936,315.9053 -542.10853,273.21574 -510.96906,112.58555 z M -510.3533,115.97222 C -537.99184,228.01896 -532.20487,313.10434 -625.00159,375.58909 C -634.39342,381.91309 -634.22353,400.49683 -633.94202,400.06937 C -633.25734,399.02972 -630.79889,394.61629 -627.6755,392.62293 C -540.27117,336.84108 -534.41155,257.20603 -510.3533,115.97222 z M -509.73754,122.43768 C -537.37608,234.48442 -525.73941,324.49587 -628.38826,394.36971 C -637.74807,400.74101 -630.52898,414.04351 -630.24747,413.61605 C -629.56279,412.5764 -627.10434,407.54721 -623.98095,405.55385 C -536.57662,349.772 -546.11095,316.01093 -509.73754,122.43768 z M -509.42966,130.44253 C -542.5572,251.5853 -516.95236,342.29532 -626.84887,407.60851 C -633.13869,411.34665 -624.95979,422.98882 -624.70565,422.54454 C -622.1737,418.11822 -617.97867,416.29056 -614.74458,414.48234 C -545.81299,375.94171 -539.95337,312.31638 -509.42966,130.44253 z M -508.55884,139.58606 C -539.07394,268.78386 -526.94579,388.20435 -612.04504,425.67787 C -625.54567,431.62289 -606.9552,442.57574 -606.63627,441.26702 C -605.17532,435.27212 -597.79468,433.20012 -586.44314,425.1498 C -537.19164,390.22146 -544.08973,332.56278 -508.55884,139.58606 z M -509.21196,135.66741 C -537.11462,264.6475 -526.11979,366.65707 -620.10007,418.71138 C -628.13218,423.14997 -617.76332,432.19934 -617.73915,431.68808 C -617.60193,428.78568 -614.821,426.27732 -602.55319,419.70722 C -545.46437,389.13295 -538.64715,321.24221 -509.21196,135.66741 z M -508.34114,144.59325 C -538.12151,358.48063 -547.29087,405.44669 -600.28906,435.03912 C -613.58769,441.42323 -598.78666,445.86385 -598.58125,444.53258 C -598.0949,441.38048 -595.73901,442.5954 -577.9649,430.10822 C -525.6229,393.3354 -536.02113,252.86399 -508.34114,144.59325 z M -510.37069,171.23304 C -541.12737,305.26244 -524.90359,406.90615 -593.44338,440.05188 C -606.7236,446.47417 -583.03878,450.66867 -582.71985,449.35995 C -581.2589,443.36505 -575.21829,443.00722 -564.33857,434.32984 C -532.96399,409.30628 -538.89576,365.90082 -510.37069,171.23304 z M -510.37069,185.72784 C -538.22841,307.67824 -519.45681,415.88142 -577.25752,443.67558 C -590.55197,450.06838 -565.51749,455.50659 -565.80925,454.19155 C -566.7641,449.88771 -557.05983,442.87318 -548.88194,431.61319 C -531.76058,408.03911 -535.51364,380.39562 -510.37069,185.72784 z M -511.57859,211.5769 C -531.3115,318.16675 -521.85316,415.58417 -561.55482,448.2656 C -571.77619,456.67958 -555.15263,460.06952 -554.69657,457.81525 C -553.32317,451.02658 -545.7366,448.43905 -538.97267,435.202 C -527.89385,413.52069 -529.23256,403.82888 -511.57859,211.5769 z M -511.88731,239.05373 C -528.55131,343.08553 -519.98731,399.95418 -539.6351,438.07756 C -545.70006,449.84564 -559.17773,458.15452 -551.30055,460.90253 C -543.80925,463.51593 -545.97419,467.51258 -533.10683,446.62495 C -523.26828,430.654 -523.36671,413.70819 -511.88731,239.05373 z M -513.37331,299.56278 C -521.31149,377.41715 -519.00186,417.24057 -529.41796,440.13327 C -540.37038,464.20469 -546.82964,462.75487 -540.23959,465.99309 C -535.16461,468.48684 -535.43032,469.98932 -526.09716,451.77783 C -521.20738,442.23657 -519.0355,406.20066 -513.37331,299.56278 z M -514.26826,347.89035 C -520.64027,423.50733 -519.78512,431.21214 -523.82449,445.95048 C -529.33005,466.03845 -538.67534,465.06678 -531.0663,469.79665 C -527.41049,472.06915 -523.89148,465.93347 -521.62238,456.92382 C -518.70095,445.32404 -518.14054,425.21845 -514.26826,347.89035 z M -515.6107,397.33661 C -517.06045,423.50733 -517.54773,445.30768 -520.69215,455.79498 C -526.67415,475.74626 -530.7592,467.69545 -523.90667,474.49516 C -521.21327,477.1678 -519.36899,467.73527 -517.14761,458.71373 C -514.8974,449.57508 -515.67942,426.56088 -515.6107,397.33661 z M -515.54046,453.0996 C -515.54046,453.0996 -516.53712,463.33103 -519.26646,469.54104 C -521.70773,475.09559 -522.11382,475.34553 -519.56633,477.27811 C -516.34923,479.71866 -516.02205,477.31846 -515.62393,472.65578 C -514.84363,463.51713 -515.54046,453.0996 -515.54046,453.0996 z "
         style="fill:url(#linearGradient2290);fill-opacity:1;fill-rule:evenodd;stroke:black;stroke-width:1px;stroke-linecap:butt;stroke-linejoin:miter;stroke-opacity:0.36842107"
         id="path2988" />
      <g
         transform="translate(-288.3337,-264.1379)"
         id="g10321">
        <path
           d="M 277.65211,610.48053 C 277.65211,612.3977 277.07418,613.95366 276.36209,613.95366 C 275.65,613.95366 275.07207,612.3977 275.07207,610.48053 C 275.07207,608.56336 275.65,607.0074 276.36209,607.0074 C 277.07418,607.0074 277.65211,608.56336 277.65211,610.48053 z "
           transform="translate(-597.3787,42.27299)"
           style="fill:url(#linearGradient10518);fill-opacity:1;stroke:url(#radialGradient10520);stroke-width:0.2;stroke-miterlimit:4;stroke-opacity:1"
           id="path4880" />
        <path
           d="M -332.64802,660.66974 C -332.64802,662.323 -333.1464,663.66477 -333.76046,663.66477 C -334.37452,663.66477 -334.8729,662.323 -334.8729,660.66974 C -334.8729,659.01649 -334.37452,657.67472 -333.76046,657.67472 C -333.1464,657.67472 -332.64802,659.01649 -332.64802,660.66974 z "
           style="fill:url(#linearGradient10522);fill-opacity:1;stroke:url(#radialGradient10524);stroke-width:0.17246814;stroke-miterlimit:4;stroke-opacity:1"
           id="path10288" />
        <path
           d="M -340.36939,666.60157 C -340.36939,668.32326 -340.75185,669.72055 -341.22308,669.72055 C -341.69431,669.72055 -342.07677,668.32326 -342.07677,666.60157 C -342.07677,664.87989 -341.69431,663.4826 -341.22308,663.4826 C -340.75185,663.4826 -340.36939,664.87989 -340.36939,666.60157 z "
           style="fill:url(#linearGradient10526);fill-opacity:1;stroke:url(#radialGradient10528);stroke-width:0.15417998;stroke-miterlimit:4;stroke-opacity:1"
           id="path10294" />
        <path
           d="M -332.64802,660.66974 C -332.64802,662.323 -333.1464,663.66477 -333.76046,663.66477 C -334.37452,663.66477 -334.8729,662.323 -334.8729,660.66974 C -334.8729,659.01649 -334.37452,657.67472 -333.76046,657.67472 C -333.1464,657.67472 -332.64802,659.01649 -332.64802,660.66974 z "
           style="fill:url(#linearGradient10530);fill-opacity:1;stroke:url(#radialGradient10532);stroke-width:0.17246814;stroke-miterlimit:4;stroke-opacity:1"
           id="path10308" />
        <path
           d="M -340.36939,666.60157 C -340.36939,668.32326 -340.75185,669.72055 -341.22308,669.72055 C -341.69431,669.72055 -342.07677,668.32326 -342.07677,666.60157 C -342.07677,664.87989 -341.69431,663.4826 -341.22308,663.4826 C -340.75185,663.4826 -340.36939,664.87989 -340.36939,666.60157 z "
           style="fill:url(#linearGradient10534);fill-opacity:1;stroke:url(#radialGradient10536);stroke-width:0.15417998;stroke-miterlimit:4;stroke-opacity:1"
           id="path10310" />
        <path
           d="M 277.65211,610.48053 C 277.65211,612.3977 277.07418,613.95366 276.36209,613.95366 C 275.65,613.95366 275.07207,612.3977 275.07207,610.48053 C 275.07207,608.56336 275.65,607.0074 276.36209,607.0074 C 277.07418,607.0074 277.65211,608.56336 277.65211,610.48053 z "
           transform="translate(-597.3787,42.27299)"
           style="fill:url(#linearGradient10538);fill-opacity:1;stroke:url(#radialGradient10540);stroke-width:0.2;stroke-miterlimit:4;stroke-opacity:1"
           id="path10312" />
      </g>
      <path
         d="M -505.27742,473.39663 C -504.8793,478.05931 -504.55705,480.46221 -501.33992,478.02163 C -499.88155,476.91528 -499.39527,476.36638 -499.49642,474.83455 C -498.58226,475.73472 -497.83038,476.06814 -496.99617,475.24038 C -493.4996,471.77076 -492.70411,471.87543 -493.45864,470.41071 C -490.4516,471.98773 -486.78457,469.01914 -485.78264,467.8429 C -484.30169,468.7458 -482.921,467.83976 -480.68367,466.74038 C -479.0508,466.21265 -477.36746,464.50476 -476.21463,462.97489 C -473.70199,464.26307 -472.37342,462.55124 -469.62117,461.64663 C -467.1635,460.83884 -466.76767,459.47003 -467.21127,458.24277 C -466.53414,460.4338 -457.59225,458.70727 -455.58568,455.00197 C -455.27344,455.75504 -444.94436,453.34534 -440.42145,450.01378 C -439.69532,450.76564 -424.98736,449.16455 -422.96171,445.34046 C -422.21578,446.07622 -416.75631,444.78153 -414.83458,442.12173 C -414.05627,442.9291 -405.05128,437.93893 -403.61745,432.61976 C -403.1658,432.8059 -397.48478,427.96148 -397.46993,423.53918 C -397.00722,423.74305 -392.724,419.02112 -391.27391,414.52577 C -390.45032,414.67226 -387.31622,407.90088 -388.13461,401.26644 C -387.41213,401.12001 -387.11297,392.42344 -389.56783,384.53471 C -389.00376,384.44124 -388.28257,365.7518 -397.43367,359.08413 C -485.30433,295.05998 -491.83939,185.04871 -509.93367,113.33413 L -505.27742,473.39663 z "
         style="fill:#847e66;fill-opacity:1;fill-rule:evenodd;stroke:#045;stroke-width:1px;stroke-linecap:butt;stroke-linejoin:miter;stroke-opacity:0.36842107"
         id="path10465" />
      <path
         d="M -510.51495,112.58555 C -492.42066,184.30013 -485.89247,294.32372 -398.02181,358.34787 C -388.87074,365.01551 -389.10775,384.17924 -389.38926,383.75178 C -390.07394,382.71213 -392.68621,378.52136 -395.65578,376.30534 C -476.59465,315.9053 -479.37548,273.21574 -510.51495,112.58555 z M -511.13071,115.97222 C -483.49217,228.01896 -489.27914,313.10434 -396.48242,375.58909 C -387.0906,381.91309 -387.26049,400.49683 -387.542,400.06937 C -388.22668,399.02972 -390.68512,394.61629 -393.80851,392.62293 C -481.21284,336.84108 -487.07246,257.20603 -511.13071,115.97222 z M -511.74647,122.43768 C -484.10793,234.48442 -495.7446,324.49587 -393.09575,394.36971 C -383.73595,400.74101 -390.95503,414.04351 -391.23654,413.61605 C -391.92122,412.5764 -394.37967,407.54721 -397.50306,405.55385 C -484.90739,349.772 -475.37306,316.01093 -511.74647,122.43768 z M -512.05435,130.44253 C -478.92681,251.5853 -504.53165,342.29532 -394.63514,407.60851 C -388.34532,411.34665 -396.52422,422.98882 -396.77836,422.54454 C -399.31031,418.11822 -403.50534,416.29056 -406.73943,414.48234 C -475.67102,375.94171 -481.53064,312.31638 -512.05435,130.44253 z M -512.92517,139.58606 C -482.41007,268.78386 -494.53822,388.20435 -409.43897,425.67787 C -395.93834,431.62289 -414.52881,442.57574 -414.84774,441.26702 C -416.30869,435.27212 -423.68933,433.20012 -435.04087,425.1498 C -484.29237,390.22146 -477.39428,332.56278 -512.92517,139.58606 z M -512.27205,135.66741 C -484.36939,264.6475 -495.36422,366.65707 -401.38394,418.71138 C -393.35183,423.14997 -403.72069,432.19934 -403.74486,431.68808 C -403.88208,428.78568 -406.66301,426.27732 -418.93082,419.70722 C -476.01964,389.13295 -482.83686,321.24221 -512.27205,135.66741 z M -513.14287,144.59325 C -483.3625,358.48063 -474.19314,405.44669 -421.19495,435.03912 C -407.89632,441.42323 -422.69735,445.86385 -422.90276,444.53258 C -423.38911,441.38048 -425.745,442.5954 -443.51911,430.10822 C -495.86111,393.3354 -485.46288,252.86399 -513.14287,144.59325 z M -511.11332,171.23304 C -480.35664,305.26244 -496.58042,406.90615 -428.04063,440.05188 C -414.76041,446.47417 -438.44523,450.66867 -438.76416,449.35995 C -440.22511,443.36505 -446.26572,443.00722 -457.14544,434.32984 C -488.52002,409.30628 -482.58825,365.90082 -511.11332,171.23304 z M -511.11332,185.72784 C -483.2556,307.67824 -502.0272,415.88142 -444.22649,443.67558 C -430.93204,450.06838 -455.96652,455.50659 -455.67476,454.19155 C -454.71991,449.88771 -464.42418,442.87318 -472.60207,431.61319 C -489.72343,408.03911 -485.97037,380.39562 -511.11332,185.72784 z M -509.90542,211.5769 C -490.17251,318.16675 -499.63085,415.58417 -459.92919,448.2656 C -449.70782,456.67958 -466.33138,460.06952 -466.78744,457.81525 C -468.16084,451.02658 -475.74741,448.43905 -482.51134,435.202 C -493.59016,413.52069 -492.25145,403.82888 -509.90542,211.5769 z M -509.5967,239.05373 C -492.9327,343.08553 -501.4967,399.95418 -481.84891,438.07756 C -475.78395,449.84564 -462.30628,458.15452 -470.18346,460.90253 C -477.67476,463.51593 -475.50982,467.51258 -488.37718,446.62495 C -498.21573,430.654 -498.1173,413.70819 -509.5967,239.05373 z M -508.1107,299.56278 C -500.17252,377.41715 -502.48215,417.24057 -492.06605,440.13327 C -481.11363,464.20469 -474.65437,462.75487 -481.24442,465.99309 C -486.3194,468.48684 -486.05369,469.98932 -495.38685,451.77783 C -500.27663,442.23657 -502.44851,406.20066 -508.1107,299.56278 z M -507.21575,347.89035 C -500.84374,423.50733 -501.69889,431.21214 -497.65952,445.95048 C -492.15396,466.03845 -482.80867,465.06678 -490.41771,469.79665 C -494.07352,472.06915 -497.59253,465.93347 -499.86163,456.92382 C -502.78306,445.32404 -503.34347,425.21845 -507.21575,347.89035 z M -505.87331,397.33661 C -504.42356,423.50733 -503.93628,445.30768 -500.79186,455.79498 C -494.80986,475.74626 -490.72481,467.69545 -497.57734,474.49516 C -500.27074,477.1678 -502.11502,467.73527 -504.3364,458.71373 C -506.58661,449.57508 -505.80459,426.56088 -505.87331,397.33661 z M -505.94355,453.0996 C -505.94355,453.0996 -504.94689,463.33103 -502.21755,469.54104 C -499.77628,475.09559 -499.37019,475.34553 -501.91768,477.27811 C -505.13478,479.71866 -505.46196,477.31846 -505.86008,472.65578 C -506.64038,463.51713 -505.94355,453.0996 -505.94355,453.0996 z "
         style="fill:url(#linearGradient2263);fill-opacity:1;fill-rule:evenodd;stroke:black;stroke-width:1px;stroke-linecap:butt;stroke-linejoin:miter;stroke-opacity:0.36842107"
         id="path10467" />
      <path
         d="M -516.54872,-12.18348 L -505.43611,-12.18348 L -505.43611,502.50566 L -516.54872,502.50566 L -516.54872,-12.18348 z "
         style="fill:url(#linearGradient2253);fill-opacity:1;stroke:black;stroke-width:0.2;stroke-miterlimit:4;stroke-opacity:1"
         id="rect10331" />
      <g
         transform="matrix(-1,0,0,1,-734.3578,-264.1379)"
         id="g23141">
        <path
           d="M 277.65211,610.48053 C 277.65211,612.3977 277.07418,613.95366 276.36209,613.95366 C 275.65,613.95366 275.07207,612.3977 275.07207,610.48053 C 275.07207,608.56336 275.65,607.0074 276.36209,607.0074 C 277.07418,607.0074 277.65211,608.56336 277.65211,610.48053 z "
           transform="translate(-597.3787,42.27299)"
           style="fill:url(#linearGradient23155);fill-opacity:1;stroke:url(#radialGradient23157);stroke-width:0.2;stroke-miterlimit:4;stroke-opacity:1"
           id="path23143" />
        <path
           d="M -332.64802,660.66974 C -332.64802,662.323 -333.1464,663.66477 -333.76046,663.66477 C -334.37452,663.66477 -334.8729,662.323 -334.8729,660.66974 C -334.8729,659.01649 -334.37452,657.67472 -333.76046,657.67472 C -333.1464,657.67472 -332.64802,659.01649 -332.64802,660.66974 z "
           style="fill:url(#linearGradient23159);fill-opacity:1;stroke:url(#radialGradient23161);stroke-width:0.17246814;stroke-miterlimit:4;stroke-opacity:1"
           id="path23145" />
        <path
           d="M -340.36939,666.60157 C -340.36939,668.32326 -340.75185,669.72055 -341.22308,669.72055 C -341.69431,669.72055 -342.07677,668.32326 -342.07677,666.60157 C -342.07677,664.87989 -341.69431,663.4826 -341.22308,663.4826 C -340.75185,663.4826 -340.36939,664.87989 -340.36939,666.60157 z "
           style="fill:url(#linearGradient23163);fill-opacity:1;stroke:url(#radialGradient23165);stroke-width:0.15417998;stroke-miterlimit:4;stroke-opacity:1"
           id="path23147" />
        <path
           d="M -332.64802,660.66974 C -332.64802,662.323 -333.1464,663.66477 -333.76046,663.66477 C -334.37452,663.66477 -334.8729,662.323 -334.8729,660.66974 C -334.8729,659.01649 -334.37452,657.67472 -333.76046,657.67472 C -333.1464,657.67472 -332.64802,659.01649 -332.64802,660.66974 z "
           style="fill:url(#linearGradient23167);fill-opacity:1;stroke:url(#radialGradient23169);stroke-width:0.17246814;stroke-miterlimit:4;stroke-opacity:1"
           id="path23149" />
        <path
           d="M -340.36939,666.60157 C -340.36939,668.32326 -340.75185,669.72055 -341.22308,669.72055 C -341.69431,669.72055 -342.07677,668.32326 -342.07677,666.60157 C -342.07677,664.87989 -341.69431,663.4826 -341.22308,663.4826 C -340.75185,663.4826 -340.36939,664.87989 -340.36939,666.60157 z "
           style="fill:url(#linearGradient23171);fill-opacity:1;stroke:url(#radialGradient23173);stroke-width:0.15417998;stroke-miterlimit:4;stroke-opacity:1"
           id="path23151" />
        <path
           d="M 277.65211,610.48053 C 277.65211,612.3977 277.07418,613.95366 276.36209,613.95366 C 275.65,613.95366 275.07207,612.3977 275.07207,610.48053 C 275.07207,608.56336 275.65,607.0074 276.36209,607.0074 C 277.07418,607.0074 277.65211,608.56336 277.65211,610.48053 z "
           transform="translate(-597.3787,42.27299)"
           style="fill:url(#linearGradient23175);fill-opacity:1;stroke:url(#radialGradient23177);stroke-width:0.2;stroke-miterlimit:4;stroke-opacity:1"
           id="path23153" />
      </g>
    </g>
  </g>
</svg>
