<?xml version="1.0" encoding="utf-8"?>
<!-- Generator: Adobe Illustrator 13.0.2, SVG Export Plug-In . SVG Version: 6.00 Build 14948)  -->
<!DOCTYPE svg PUBLIC "-//W3C//DTD SVG 1.1//EN" "http://www.w3.org/Graphics/SVG/1.1/DTD/svg11.dtd">
<svg version="1.1" id="Layer_1" xmlns="http://www.w3.org/2000/svg" xmlns:xlink="http://www.w3.org/1999/xlink" x="0px" y="0px"
	 width="299.043px" height="301px" viewBox="0 0 299.043 301" enable-background="new 0 0 299.043 301" xml:space="preserve">
<ellipse fill="#C2A204" cx="148.751" cy="150.752" rx="63.725" ry="62.774"/>
<g>
	<path fill="#C2A204" d="M150.073,43.619c-59.452,0-107.646,47.476-107.646,106.041c0,58.564,48.194,106.042,107.646,106.042
		c59.45,0,107.646-47.478,107.646-106.042C257.719,91.095,209.523,43.619,150.073,43.619z M150.073,234.492
		c-47.562,0-86.117-37.982-86.117-84.833c0-46.852,38.555-84.833,86.117-84.833c47.561,0,86.116,37.981,86.116,84.833
		C236.189,196.51,197.631,234.492,150.073,234.492z"/>
</g>
<g>
	<path fill="#53301A" d="M142.004,93c43.661-6.603,80.987,41.339,58,85c-11.148,21.172-43.311,42.039-77,25
		c-34.726-17.562-41.069-71.329-11-97C119.482,99.614,130.231,94.78,142.004,93z"/>
	<path fill="#53301A" d="M228.004,102c2.636-0.305,2.576,2.087,3,4C229.54,105.13,227.834,104.502,228.004,102z"/>
	<path fill="#53301A" d="M104.004,235C105.162,231.049,105.162,238.951,104.004,235L104.004,235z"/>
	<path fill="#53301A" d="M182.004,239c0.246-1.259,1.986-1.009,2,0C183.114,239.614,182.213,240.208,182.004,239z"/>
	<path fill="#53301A" d="M35.004,117c-0.851,0.184-0.944-0.39-1-1h1v-1c0.85-0.184,0.943,0.389,1,1h-1V117z"/>
	<path fill="#53301A" d="M33.504,114.5l0.5,1.5c-12.808-3.53-34.356-3.64-34-17c4.647-5.737,11.343-2.75,16-1
		c7.459,2.802,11.86,9.92,22,11c3.87,0.412,7.82-2.238,12,0l0.5,1.5l1.5-0.5c0.474,3.141-1.248,4.086-3,5l-0.5-1.5l-1.5,0.5
		c-2.503-0.125-3.131-1.909-4,1c1.793-0.127,2.109,1.224,4,1l0.5,1.5l1.5-0.5c0.603,3.937-1.474,5.193-3,7l-0.5-1.5l-1.5,0.5
		c-2.877-1.124-6.74-1.261-7-5h1v-1c3.562-0.834-2.447-5.282-3-2L33.504,114.5z"/>
	<path fill="#53301A" d="M68.504,82.5l-1.5-0.5c5.416-6.917,11.431-13.235,19-18l1.166,1.5l1.834-0.5c-0.001,0.333-0.001,0.667,0,1
		v1h1c-6.178,6.489-14.732,10.602-19,19c-1.314-0.354-1.573-1.761-3-2L68.504,82.5z"/>
	<path fill="#53301A" d="M96.837,56.5L95.004,57c-0.89-2.444-2.332-4.336-2-8l1.5,0.5l0.5-1.5c0.666,0,1.333,0,2,0l1.166,1.5
		l1.834-0.5c0.776,0.889,1.074,2.258,1,4c0.333,0,0.666,0,1,0l-0.5,1.833l1.5,1.167l-1.5-0.5l0.5,1.5c-1.794-0.127-2.11,1.224-4,1
		L96.837,56.5z"/>
	<path fill="#53301A" d="M94.504,43.5l-1.5,0.5c-3.073-12.843-21.204-20.456-13-38c15.235,1.81,12.157,21.034,19,31
		c3.543,5.162,9.435,4.01,10,11l-1.786-0.357L106.004,49c-2.443,2.535-2.131-2.108-6-1l-1.5-0.5l-1.5,0.5
		c1.142-2.694,0.589-4.807-2-3L94.504,43.5z"/>
	<path fill="#53301A" d="M183.504,34.167l-1.5-1.167c2.72-13.945,3.306-30.027,17-33c6.358,15.291-8.312,23.27-10,34
		c-0.781,4.951,3.076,10.004,1,16l-1.5-0.5l-0.5,1.5c-1.781,0.598-4.153-2.932-5,0l-0.5-0.5l-0.5-0.5c-1.164,0.163-1.78-0.221-2-1
		l0.5-1.5l-0.5-1.5c1.759-0.241,2.277-1.721,2-4l0.5-1.5l-0.5-1.5c1.211,0.306,3.447-2.889,1-3L183.504,34.167z"/>
	<path fill="#53301A" d="M244.504,96.5l-0.5-1.5c3.06-0.063,5.209-3.672,8-1l-0.5,1.5l1.5,0.5c0.16,1.172,1.822,0.843,3,1
		c0-0.667,0-1.333,0-2l1.5-0.5l-0.5-1.5c11.597-3.869,18.692-17.126,35-13c-0.256,15.849-17.808,13.341-28,19
		c-6.231,3.458-6.944,8.416-13,11l-1.5-0.5l-1.5,0.5c0.549-2.051-1.912-2.386-2-1l-1-0.5l-1,0.5c-1.248-2.421-2.478-4.858-3-8
		l0.5,0.5l0.5-0.5c4.08,0.304,0.533-2.088,1-4L244.504,96.5z M249.004,102C254.147,99.583,245.56,99.416,249.004,102L249.004,102z"
		/>
	<path fill="#53301A" d="M256.504,146.5l1.5-0.5c-0.073,6.593,0.469,13.803-1,19l-1.5-0.5l-0.5,1.5c-0.668,0-1.334,0-2,0l0.5-1.5
		l-1.5-0.5c0.851-7.65,0.488-12.12,1-17l1.5,0.5l0.5-1.5L256.504,146.5z"/>
	<path fill="#53301A" d="M260.103,182.898l0.901-1.898c0.849-0.186,0.941,0.389,1,1l-1.5,1.165l0.5,1.835c-0.334,0-0.668,0-1,0
		L260.103,182.898z"/>
	<path fill="#53301A" d="M263.504,184.5l0.5-1.5c12.615,5.243,36.144,4.254,35,20c-14.248,6.302-23.494-8.066-35-11
		c-7.1,0.368-8.137,2.434-14,0l-0.5-1.5l-1.5-0.5c0.291-0.615,2.486-3.85,0-4l0.5-1.5l-1.5-0.5c0-0.335,0-0.667,0-1l2.5,0.5l0.5-2.5
		c0.332,0,0.666-0.002,1,0l1.5,0.5l1.5-0.5c0.127,1.793-1.227,2.107-1,4c1.666,0,3.332,0,5,0l0.5,1.5l1.5-0.5
		c-0.369,1.7,0.777,1.885,2,2c0.188-0.811,1.002-0.997,1-2L263.504,184.5z"/>
	<path fill="#53301A" d="M227.504,223.5l1.5,0.5c-2.74,2.26-4.849,5.152-8,7l-0.5-1.5l-1.5-0.5l0.5-1.5l-1.5-0.5
		c1.576-2.424,3.576-4.424,6-6l0.5,1.5l1.5-0.5c0.332-0.002,0.666,0,1,0L227.504,223.5z"/>
	<path fill="#53301A" d="M207.004,257.5l1,0.5c5.805,9.576,17.451,18.482,13,35c-16.582-0.615-12.698-20.754-20-31
		c-3.604-5.055-8.656-4.135-10-11l0.5-1.5l-0.5-1.5c3.729-0.936,4.586-4.746,9-5l-0.357,1.785l1.357,1.215
		c-0.045,1.71,0.742,2.589,2,3l-0.5,1.833l1.5,1.167c-1.814,0.677,0.806,7.629,2,5L207.004,257.5z"/>
	<path fill="#53301A" d="M120.504,254l0.5,1c-3.937,0.73-2.393,6.941-6,8l-0.5-1.5l-1.5,0.5c-0.554-3.282-6.563,1.166-3,2l-0.5,1.5
		l1.5,0.5c-4.649,12.684-3.088,31.579-17,35c-11.653-13.093,6.772-24.086,9-38c0.803-5.021-2.668-8.523,0-14l1.5-0.5l-0.5-1.5
		c2.555,0.443,4.597,1.4,6,3l-1.5,1.166l0.5,1.834c-0.334,0-0.667,0-1,0c0,1-0.001,2,0,3c2.688,0.688,1.932-2.066,3-3l0.5-1.5
		l0.5-1.5c2.048,1.618,6.552,0.779,8,3L120.504,254z"/>
	<path fill="#53301A" d="M56.504,205.5l-0.5,1.5c-3.523,1.6-4.64,3.385-9,2l0.5-1.835l-1.5-1.165c-0.248-1.259-1.989-1.009-2,0
		l-0.5,1.5l0.5,1.5c-6.532,1.127-13.294,7.843-20,12c-5.653,3.504-13.548,9.201-19,1c3.423-15.243,24.374-12.96,35-21
		c2.411-3.922,5.153-7.514,9-10l1,0.5l1-0.5c2.784,0.45-0.785-5.451,2-5c0.798,1.868,1.67,3.662,2,6l-1.75,0.25l-0.25,1.75
		c-0.151,2.482,0.516,4.148,2,5l0.5,1.5l1.5-0.5c0.875,3.54,0.124,2.458,1,6L56.504,205.5z"/>
	<path fill="#53301A" d="M131.504,254.5l-2.5-0.5c-0.19-0.811-1.003-0.997-1-2h1v-1c2.318-0.318,3.839,0.16,5,1l-0.5,1l0.5,1
		c0,0.333,0,0.666,0,1L131.504,254.5z"/>
	<path fill="#53301A" d="M181.004,57c-1.006,1.329-0.947,3.721-3,4h-2h-2c-0.319-2.319,0.16-3.84,1-5l0.5-1l-0.5-1
		c1.752,0.914,4.988,0.343,6,2l-1.5,0.5L181.004,57z"/>
	<path fill="#53301A" d="M61.504,121.5l-0.5,1.5c-1.584-0.083-3.815,0.48-4-1v-2v-2c2.279-0.28,3.759,0.241,4,2L61.504,121.5z"/>
	<path fill="#53301A" d="M62.004,194.665V193c0.56-1.439,1.56-2.439,3-3l1,1.75l1-1.75c0.972,0.025,0.776,1.225,1,2l-0.5,1l0.5,1
		c-1.205,1.129-1.813,2.854-5,2L62.004,194.665z"/>
	<path fill="#53301A" d="M236.004,181.5l-1,0.5c0.328-2.338,1.201-4.132,2-6l1,0.5l1,0.5c1.709-0.044,2.588,0.742,3,2v2v2
		c-2.828,0.826-2.592-1.411-5-1L236.004,181.5z"/>
	<path fill="#53301A" d="M233.504,110.5l-0.5,1.5c-1.442-0.227-0.352-2.985-2-3c0.631-3.034,4.584-2.748,6-5h1v-1
		c1.48,0.85,2.147,2.517,2,5l-1.5,0.5l0.5,1.5c-0.892,0.776-2.26,1.075-4,1L233.504,110.5z"/>
	<path fill="#53301A" d="M195.504,237l0.5,1c-2.092,1.909-4.776,3.225-8,4l0.498-1.5l-1.498-0.5c-0.043-3.708,5.543-1.79,4-7
		l1.5-0.5l1.5,0.5c4.66-0.878-1.379,2.593,2,3L195.504,237z"/>
	<path fill="#53301A" d="M107.004,67c-0.973-0.028-0.777-1.224-1-2l1.166-1.5l1.834-0.5c2.078,0.56,2.119,1.56,1,3l-1.25,1.25
		L107.004,67z"/>
	<path fill="#53301A" d="M80.004,100c0.333,0,0.666,0,1,0l-0.5,1.5l1.5,0.5c-2.696,3.304-4.386,7.614-7,11l-0.5-1.5l-1.5,0.5
		c-0.334,0-0.667,0-1,0v-1h-1c2.639-4.028,4.328-9.005,8-12v1H80.004z"/>
	<path fill="#53301A" d="M107.504,78.5l-1.5-0.5c1.499-1.167,2.444-2.888,5-3l-0.357,1.785L112.004,78c0.566,1.78,2.78,0.144,1,0
		l0.5-1.833l-1.5-1.167c1.665-2.334,5.431-2.569,8-4l0.5,1.5l1.5,0.5c0,3,0,6,0,9c2.36,1.639,5.285,2.714,4,8c0.333,0,0.666,0,1,0
		l-0.5,1.5l0.5,1.5c-0.028,0.972-1.224,0.776-2,1l-1.167-1.5l-1.833,0.5c0.181-2.182-0.819-3.182-3-3l0.5-1.5l-1.5-0.5
		c-0.547-1.453,1.168-5.169-1-5c-0.19,0.81-1.003,0.997-1,2h-1v1c-2.521-2.146-6.851-2.484-8-6L107.504,78.5z"/>
	<path fill="#53301A" d="M171.504,69.833l-0.5-1.833c3.244-0.58,4.65,0.681,7,1l1,0.5l1-0.5c0.188,0.81,1.002,0.997,1,2l-1.5,0.5
		l0.5,1.5c-5.229,5.651-5.142,10.864-9,17l-1.5,0.5l0.5,1.5c-2.562-0.106-4.77-0.566-6-2l2-1.5l-2-1.5l2,1.5V86
		c2.473,0.127,1.697-1.225,0-1l0.099-2.1l-2.099,0.1c-2.448-0.111-0.215-3.307,1-3l0.5,1.5l1.5-0.5c2.264-0.039,4.584-5.652,1-3
		l-0.5-1.5l-1.5-0.5c0-0.333,0-0.667,0-1l2.099,0.1l-0.099-2.1c0.889-0.443,1.787-0.878,2-2L171.504,69.833z"/>
	<path fill="#53301A" d="M236.504,149.5l1.5,0.5c0.224,5.225-0.019,9.982-1,14l-1.5-0.5l-0.5,1.5c-0.334,0-0.668-0.002-1,0l0.5-2.5
		l-2.5,0.5c0.427-4.573,1.52-8.479,1-14l1.832,0.5l1.168-1.5c0.332,0,0.666,0,1,0L236.504,149.5z"/>
	<path fill="#53301A" d="M230.504,179.5l1.5-0.5c1.761,2.74-2.5,6.37-3,10l-1-0.5l-1,0.5c-0.334-0.002-0.668,0-1,0l0.5-1.5l-1.5-0.5
		c0-1,0-2,0-3c-3.137-3.425-7.68-8.385-13-4c0.228-3.562-1.439-5.229-5-5l-0.5-1.5l-1.5,0.5c1.002-3.332,1.795-6.87,3-10l1,0.5
		l1,0.5c0.849-0.186,0.941,0.389,1,1l0.5,1l0.5,1c-1.455,0.441,0.101,0.878,0,2c0.666,0,1.332,0,2,0c0-0.667,0-1.335,0-2l1.5-0.5
		l-0.5-1.5c0.889-0.777,2.257-1.076,4-1c-0.698,3.697,1.58,4.417,5,4l0.5,1.5l1.5-0.5c-0.469,2.134,1.427,1.904,3,2l1.213,1.355
		l1.787-0.355c0.408,2.409-1.828,2.173-1,5L230.504,179.5z"/>
	<path fill="#53301A" d="M194.504,220.5l1.5,0.5c-0.354,1.312-1.762,1.572-2,3l-0.752,1h-1.248c-4.195,0.805-6.486,3.514-11,4
		l-0.5-1.5l-1.5,0.5c-0.615-4.863-0.615-5.139,0-10c-4.974-0.309-4.844-4.174-5-7c-1.002,0-2,0-3,0l0.5-1.835l-1.5-1.165
		c3.771-2.227,7.367-4.632,12-6l0.5,1.5l1.5-0.5c-1.309,4.307,2.836,3.162,4,5c-1.152,1.182-1.133,3.534-1,6
		c3.922,0.408,5.531,3.135,8,5L194.504,220.5z"/>
	<path fill="#53301A" d="M179.504,232l0.5,1c-3.531,1.135-6.235,3.1-11,3l0.5-1.5l-1.5-0.5l1.748-1l-1.748-1
		c2.326-1.674,5.387-2.611,9-3l0.5,1.5l1.5-0.5c-0.187,0.85,0.389,0.941,1,1L179.504,232z"/>
	<path fill="#53301A" d="M144.504,237.5l0.5,1.5c-2.819-1.85-9.356,0.021-12-2l0.5-1l-0.5-1c0-0.335,0-0.667,0-1l1.5-0.5l-0.5-1.5
		c3.766,0.898,9.035,0.298,12,2l0.5,1l0.5,1c-0.851-0.186-0.944,0.389-1,1L144.504,237.5z"/>
	<path fill="#53301A" d="M109.504,227.5l-0.5,1.5c-0.805-0.529-1.624-1.044-3-1c-0.282-1.615,0.944-1.723,1-3l1.5-0.5l-0.5-1.5
		c1.162-0.163,1.778,0.221,2,1l-0.864,1.954l1.864,1.046c0,0.333-0.001,0.665,0,1L109.504,227.5z"/>
	<path fill="#53301A" d="M98.504,218.5l0.5,1.5c-7.344,1.995-11.234-8.089-16-12h1v-1c0-0.335,0-0.667,0-1l1.5,0.5l0.5-1.5
		c4.832,4.167,9.378,8.621,14,13L98.504,218.5z"/>
	<path fill="#53301A" d="M82.004,206v1c-3.969-3.365-6.732-7.936-9-13l1.5,0.5l-0.5-1.5c1.453-0.443-0.103-0.879,0-2l0.785-1.645
		L76.004,188c1.71,0.043,2.589-0.744,3-2c-1.419-0.086-2.832-0.166-3,1l-1.834-0.5l-1.166,1.5c-1.086-0.248-0.679-1.99-2-2l0.5-1.5
		l-1.5-0.5c0-0.667,0-1.335,0-2l1.5,0.5l0.5-1.5c3.385-0.282,5.742-1.591,10-1c2.003-4.878,5.369-2.678,9-5l1.5,0.5l0.5-1.5
		c1.482,0.85,2.149,2.518,2,5l-2.5-0.5l-0.5,2.5c-1.147,0.354-2.535,1.76-1,2l-0.5,1.833l1.5,1.167c0.763,5.473-3.223,1.525-6,2
		l0.5-1l-0.5-1c3.678-0.708-4.046-2.492-2,1v1h1c-0.04,4.293-4.415,4.252-5,8c0.463,3.203,3.807,3.525,4,7l-0.5,1l0.5,1
		c-0.851-0.186-0.944,0.389-1,1H82.004z"/>
	<path fill="#53301A" d="M68.004,181.5l-1,0.5c-1.576-6.424-7.872-17.674-3-24l0.5,1.5l1.5-0.5c1.671,6.995,3.529,13.805,5,21
		l-1.5,0.5l0.5,1.5c-0.334,0-0.667-0.002-1,0L68.004,181.5z"/>
	<path fill="#53301A" d="M69.254,129.25l-1.25-1.25c0.493-4.84,2.506-8.161,4-12l0.5,1.5l1.5,0.5c3.974,1.514,6.032,7.464,12,4
		c1.128,1.872,1.182,4.817,5,4l-0.5,1.5l1.5,0.5c0.085,1.418,0.165,2.831-1,3l-1.072-1.786L88.004,130c-2.09-0.424-2.648,0.685-4,1
		l-0.5-1.5l-1.5-0.5c-0.89-0.777-2.259-1.076-4-1c0,0.667,0,1.333,0,2l-1.5-0.5l-0.5,1.5c-0.028,0.972-1.224,0.776-2,1l0.5-1.5
		l-1.5-0.5c0-0.667,0-1.333,0-2c-1.164-0.163-1.78,0.221-2,1L69.254,129.25z"/>
	<path fill="#53301A" d="M216.504,114l-0.5-1c-0.281-2.28,0.238-3.759,2-4l0.5,1.5l1.5,0.5c0,0.333,0,0.667,0,1c0.666,0,1.332,0,2,0
		c0-0.667,0-1.333,0-2l1.213-1.357l1.787,0.357c1.666,1.333,1.552,4.447,3,6l-0.5,1.5l1.5-0.5c0,0.667,0,1.333,0,2l-1.5,1.167
		l0.5,1.833c-5.881,0.455-11.438,1.229-13,6c-0.422-2.226-5.308-0.783-6,0c0,0.333,0,0.667,0,1l-1.5-0.5l-1.5,0.5
		c-0.975-0.028-0.777-1.224-1-2l1.5-1.167l-0.5-1.833c1.484-1.182,4.468-0.866,4-4l1.832,0.5l1.168-1.5c1.947,0.473,5.113-2.691,3-3
		L216.504,114z"/>
	<path fill="#53301A" d="M117.004,90v2c-4.896,1.424-4.486-2.805-2-4h1v-1c0.85-0.184,0.943,0.389,1,1V90z"/>
	<path fill="#53301A" d="M122.837,207.5l1.167-1.5c2.561,0.771,5.668,0.997,7,3l0.5,1.5l0.5,1.5c-0.811,0.189-0.998,1.003-2,1
		c0.027,3.023,4.232,5.771-1,6l-1-0.5l-1,0.5c-0.715-3.684-5.829,2.992-1,2l-0.5,1.5l1.5,0.5c0.972,0.025,0.776,1.225,1,2l-1.5-0.5
		l-0.5,1.5c-2.182-0.182-3.182,0.818-3,3l-1.5,0.5l0.5,1.5c-1.334,0-2.667,0-4,0l-1.644-0.786L115.004,229
		c-0.227-1.439-2.985-0.35-3-2l0.5-1.5l-0.5-1.5c5.187-3.479,6.787-10.547,9-17L122.837,207.5z"/>
	<path fill="#53301A" d="M230.504,120.833l-0.5-1.833c0.332,0,0.666,0,1,0l-0.103,2.1l-1.897,0.9L230.504,120.833z"/>
	<path fill="#53301A" d="M82.004,132.667l1,1.333c-0.248,1.257-1.989,1.008-2,0l0.5-1.5l-0.5-1.5c0.333,0,0.666,0,1,0V132.667z"/>
	<path fill="#53301A" d="M200.004,230c1.785-0.297,0.061,3.879-2,3C197.454,230.782,199.915,231.575,200.004,230z"/>
	<g>
		<path fill="none" stroke="#000000" stroke-width="1.4832" stroke-linecap="round" d="M126.504,58.5c0.47-0.529,1.228-0.772,2-1"/>
		<path fill="none" stroke="#000000" stroke-width="1.3784" stroke-linecap="round" d="M228.504,88.5c-1.723-1.09-3.008-2.75-4.5-4"
			/>
		<path fill="none" stroke="#000000" stroke-width="1.4402" stroke-linecap="round" d="M46.504,145.5c0.421-4.451-0.161-9.398,2-13"
			/>
		<path fill="none" stroke="#000000" stroke-width="1.9272" stroke-linecap="round" d="M64.504,131.5c-0.502,0.903-0.381,2.156-1,3"
			/>
		<path fill="none" stroke="#000000" stroke-width="1.8708" stroke-linecap="round" d="M59.504,95.75
			c0.648-5.478,4.59-10.212,9-13.25"/>
		<path fill="none" stroke="#000000" stroke-width="2.337" stroke-linecap="round" d="M87.17,65.5c0.876-3.392,4.358-4.935,7.583-5"
			/>
		<path fill="none" stroke="#000000" stroke-width="3.4059" stroke-linecap="round" d="M94.754,60.5c0.149-0.777,1.3-2.396,2.083-4"
			/>
		<path fill="none" stroke="#000000" stroke-width="2.1344" stroke-linecap="round" d="M94.504,49.5c-0.672-1.886-0.756-4.12,0-6"/>
		<path fill="none" stroke="#000000" stroke-width="2.6278" stroke-linecap="round" d="M113.504,50.5
			c15.231-6.147,32.665-8.871,49-6"/>
		<path fill="none" stroke="#000000" stroke-width="2.6943" stroke-linecap="round" d="M162.504,44.5c4.742-1.998,9.363,3.1,14,0"/>
		<path fill="none" stroke="#000000" stroke-width="4.7509" stroke-linecap="round" d="M176.504,44.5
			c0.301-1.384,0.537-2.895,1.498-4"/>
		<path fill="none" stroke="#000000" stroke-width="2.2803" stroke-linecap="round" d="M178.002,40.5
			c0.127-3.257,2.815-5.118,5.502-6.333"/>
		<path fill="none" stroke="#000000" stroke-width="2.6165" stroke-linecap="round" d="M192.504,52.5
			c2.858-0.184,4.512,2.099,6.599,3.6"/>
		<path fill="none" stroke="#000000" stroke-width="1.9012" stroke-linecap="round" d="M199.103,56.1
			c19.933,6.096,33.087,24.741,45.401,40.4"/>
		<path fill="none" stroke="#000000" stroke-width="2.4238" stroke-linecap="round" d="M253.17,121.833
			c0.172,0.11,0.344,0.22,0.517,0.33c0.224,0.95,0.599,2.739,0.817,4.337"/>
		<path fill="none" stroke="#000000" stroke-width="2.273" stroke-linecap="round" d="M254.504,126.5
			c0.477,1.438,0.4,2.553,0.332,3.333"/>
		<path fill="none" stroke="#000000" stroke-width="2.3299" stroke-linecap="round" d="M254.836,129.833
			c1.406,1.489,0.763,3.031,0.416,4.417"/>
		<path fill="none" stroke="#000000" stroke-width="2.7839" stroke-linecap="round" d="M255.252,134.25
			c0.891,1.543,1.435,3.482,0.918,5.25"/>
		<path fill="none" stroke="#000000" stroke-width="3.0822" stroke-linecap="round" d="M256.17,139.5
			c0.578,2.282,0.23,4.671,0.334,7"/>
		<path fill="none" stroke="#000000" stroke-width="4.4721" stroke-linecap="round" d="M252.336,176.665
			c0.34,0.685,0.683,1.365,1.022,2.049"/>
		<path fill="none" stroke="#000000" stroke-width="3.496" stroke-linecap="round" d="M253.36,178.714
			c2.566,0.779,5.389,1.646,6.743,4.187"/>
		<path fill="none" stroke="#000000" stroke-width="2.3452" stroke-linecap="round" d="M244.504,196.5c1.326,4.275-2.615,7.867-5,11
			"/>
		<path fill="none" stroke="#000000" stroke-width="2.222" stroke-linecap="round" d="M239.504,207.5
			c-2.729,6.205-7.549,11.105-12,16"/>
		<path fill="none" stroke="#000000" stroke-width="3.4902" stroke-linecap="round" d="M203.903,243.1
			c0.877,2.224,2.604,4.416,1.965,6.945"/>
		<path fill="none" stroke="#000000" stroke-width="2.4053" stroke-linecap="round" d="M205.868,250.045
			c1.465,2.225,1.084,4.939,1.137,7.455"/>
		<path fill="none" stroke="#000000" stroke-width="2.6457" stroke-linecap="round" d="M131.504,254.5
			c-3.58,2.436-7.449-0.163-11-0.5"/>
		<path fill="none" stroke="#000000" stroke-width="1.9265" stroke-linecap="round" d="M104.504,248.5
			c-19.58-9.766-36.041-24.824-48-43"/>
		<path fill="none" stroke="#000000" stroke-width="2.3071" stroke-linecap="round" d="M46.104,175.1
			c-6.847-16.688-3.21-35.402-0.599-52.6"/>
		<path fill="none" stroke="#000000" stroke-width="1.2" stroke-linecap="round" d="M38.004,118c-0.963-0.387-2.151-1.272-3-2"/>
		<path fill="none" stroke="#000000" stroke-width="1.4142" stroke-linecap="round" d="M33.504,114.5c0.5,0.5,1,1,1.5,1.5"/>
		<path fill="none" stroke="#000000" stroke-width="3.0659" stroke-linecap="round" d="M178.002,40.5c1.279,0,2.967,0,4.502,0"/>
		<path fill="none" stroke="#000000" stroke-width="2.7689" stroke-linecap="round" d="M176.504,44.5c0.797,1.873,2.389,2.284,4,3"
			/>
		<path fill="none" stroke="#000000" stroke-width="3.0822" stroke-linecap="round" d="M98.17,49.5c0.182-0.667,0.261-1.333,0.334-2
			"/>
		<path fill="none" stroke="#000000" stroke-width="4.0825" stroke-linecap="round" d="M46.104,175.1
			c0.615-0.063,1.269-0.121,1.8-0.199"/>
		<path fill="none" stroke="#000000" stroke-width="2.0292" stroke-linecap="round" d="M47.904,174.898
			c0.886-3.047-0.573-6.265-0.399-9.398"/>
		<path fill="none" stroke="#000000" stroke-width="1.9748" stroke-linecap="round" d="M47.904,174.898
			c1.91,2.576,4.964,7.939,1.2,10.201"/>
		<path fill="none" stroke="#000000" stroke-width="2.7928" stroke-linecap="round" d="M49.104,185.1
			c-0.543,2.332,0.204,4.352,0.901,6.4"/>
		<path fill="none" stroke="#000000" stroke-width="1.425" stroke-linecap="round" d="M57.004,198.75
			c5.068,5.7,8.664,13.402,14,19.25"/>
		<path fill="none" stroke="#000000" stroke-width="2.2361" stroke-linecap="round" d="M57.004,198.75
			c-0.536,0.387-1.02,1.062-1.5,1.75"/>
		<path fill="none" stroke="#000000" stroke-width="1.2777" stroke-linecap="round" d="M76.504,223.5
			c14.371,14.521,32.753,24.102,52.5,28.5"/>
		<path fill="none" stroke="#000000" stroke-width="2.3558" stroke-linecap="round" d="M155.502,255.5
			c2.41-3.037,7.346-3.341,10.502-1.5"/>
		<path fill="none" stroke="#000000" stroke-width="1.5442" stroke-linecap="round" d="M166.004,254
			c18.455-6.604,37.356-14.059,53.5-26.5"/>
		<path fill="none" stroke="#000000" stroke-width="1.5106" stroke-linecap="round" d="M224.504,222.5
			c3.166-5.828,7.779-11.287,12.5-15.75"/>
		<path fill="none" stroke="#000000" stroke-width="1.8371" stroke-linecap="round" d="M237.004,206.75
			c0.832-4.136,3.348-8.53,7.5-10.25"/>
		<path fill="none" stroke="#000000" stroke-width="5.099" stroke-linecap="round" d="M244.504,196.5
			c0.055-0.277,0.109-0.557,0.166-0.835"/>
		<path fill="none" stroke="#000000" stroke-width="1.9868" stroke-linecap="round" d="M244.67,195.665
			c-1.25-3.752,1.045-8.668,3.834-11.165"/>
		<path fill="none" stroke="#000000" stroke-width="2.51" stroke-linecap="round" d="M249.504,183.5c-1.162-2.593-0.266-5.355,2-7"
			/>
		<path fill="none" stroke="#000000" stroke-width="1.7029" stroke-linecap="round" d="M251.504,176.5c-1.514-3.711-0.42-8.846,2-12
			"/>
		<path fill="none" stroke="#000000" stroke-width="1.4015" stroke-linecap="round" d="M250.17,123.167
			c-1.568-4.877-3.082-9.783-5.166-14.667"/>
		<path fill="none" stroke="#000000" stroke-width="1.0614" stroke-linecap="round" d="M215.504,69.5
			c10.199,9.153,19.576,19.849,26,32"/>
		<path fill="none" stroke="#000000" stroke-width="1.3077" stroke-linecap="round" d="M198.504,57.5c1.66,4.262,8.033,3.964,10,8"
			/>
		<path fill="none" stroke="#000000" stroke-width="1.4903" stroke-linecap="round" d="M191.004,55
			c-2.957-0.708-7.412-1.353-8.5-4.5"/>
		<path fill="none" stroke="#000000" stroke-width="1.4349" stroke-linecap="round" d="M161.004,47c2.734,0.846,5.543,1.806,8.5,1.5
			"/>
		<path fill="none" stroke="#000000" stroke-width="1.7701" stroke-linecap="round" d="M95.004,61c-0.398,3.272-3.369,4.759-6,6"/>
		<path fill="none" stroke="#000000" stroke-width="2.569" stroke-linecap="round" d="M60.218,95.928
			c1.928-0.696,2.406-1.292,2.786-1.928"/>
		<path fill="none" stroke="#000000" stroke-width="1.4252" stroke-linecap="round" d="M60.218,95.928
			c0.182,0.415,0.364,0.829,0.546,1.243c-3.367,8.974-8.858,17.654-11.26,27.329"/>
		<path fill="none" stroke="#000000" stroke-width="4.1231" stroke-linecap="round" d="M60.218,95.928
			c-0.238-0.06-0.476-0.119-0.714-0.178"/>
		<path fill="none" stroke="#000000" stroke-width="2.506" stroke-linecap="round" d="M59.504,95.75c-4.68,3.943-7.28,9.107-9,14.75
			"/>
		<path fill="none" stroke="#000000" stroke-width="1.291" stroke-linecap="round" d="M191.004,55c0.291-0.65,0.838-1.619,1.5-2.5"
			/>
		<path fill="none" stroke="#000000" stroke-width="2.1985" stroke-linecap="round" d="M192.504,52.5c-1.146-1.446-3.383-1.066-4-3"
			/>
		<path fill="none" stroke="#000000" stroke-width="1.291" stroke-linecap="round" d="M161.004,47c0.289-0.65,0.838-1.619,1.5-2.5"
			/>
		<path fill="none" stroke="#000000" stroke-width="1.5686" stroke-linecap="round" d="M114.17,52.833
			c15.188-3.851,30.927-6.234,46.834-5.833"/>
		<path fill="none" stroke="#000000" stroke-width="3.6515" stroke-linecap="round" d="M108.253,50.5
			c-0.309-0.831-0.716-1.933-1.035-2.857"/>
		<path fill="none" stroke="#000000" stroke-width="1.4577" stroke-linecap="round" d="M103.004,59
			c3.588-2.381,7.922-3.215,11.166-6.167"/>
		<path fill="none" stroke="#000000" stroke-width="2.1602" stroke-linecap="round" d="M114.17,52.833
			c-0.088-0.532-0.355-1.491-0.666-2.333"/>
		<path fill="none" stroke="#000000" stroke-width="3.0822" stroke-linecap="round" d="M113.504,50.5c-1.624,0-3.786,0-5.251,0"/>
		<path fill="none" stroke="#000000" stroke-width="3" stroke-linecap="round" d="M108.253,50.5
			c-2.326,1.486-3.722,4.01-6.749,4.333"/>
		<path fill="none" stroke="#000000" stroke-width="3.3912" stroke-linecap="round" d="M198.504,57.5
			c0.213-0.595,0.406-1.002,0.599-1.4"/>
		<path fill="none" stroke="#000000" stroke-width="1.4676" stroke-linecap="round" d="M191.004,55c2.248,1.15,4.845,3.348,7.5,2.5"
			/>
		<path fill="none" stroke="#000000" stroke-width="4.4721" stroke-linecap="round" d="M94.754,60.5
			c0.083,0.167,0.167,0.333,0.25,0.5"/>
		<path fill="none" stroke="#000000" stroke-width="2.0939" stroke-linecap="round" d="M95.004,61c2.893,0.768,5.435-1.021,8-2"/>
		<path fill="none" stroke="#000000" stroke-width="1.2649" stroke-linecap="round" d="M103.004,59
			c-0.293-0.883-0.602-2.236-1.5-3.5"/>
		<path fill="none" stroke="#000000" stroke-width="2.0736" stroke-linecap="round" d="M257.504,94.5c-2.008-0.812-4.558-0.871-6,1"
			/>
		<path fill="none" stroke="#000000" stroke-width="1.6733" stroke-linecap="round" d="M250.17,123.167
			c0.52-0.196,1.808-0.55,3-1.333"/>
		<path fill="none" stroke="#000000" stroke-width="2.1366" stroke-linecap="round" d="M253.17,121.833
			c0.283-4.526-2.652-8.117-3.666-12.333"/>
		<path fill="none" stroke="#000000" stroke-width="2.1448" stroke-linecap="round" d="M47.504,117.5c0.371-1.333,0.516-2.667,1-4"
			/>
		<path fill="none" stroke="#000000" stroke-width="1.8126" stroke-linecap="round" d="M250.17,123.167
			c-0.209,1.313,0.75,2.573,1.082,3.833"/>
		<path fill="none" stroke="#000000" stroke-width="2.1213" stroke-linecap="round" d="M251.252,127
			c1.176,0.029,2.19-0.229,3.252-0.5"/>
		<path fill="none" stroke="#000000" stroke-width="2.1448" stroke-linecap="round" d="M252.17,130.167
			c0.836-0.124,1.978-0.172,2.666-0.333"/>
		<path fill="none" stroke="#000000" stroke-width="1.6733" stroke-linecap="round" d="M251.252,127
			c-0.256,0.702,0.179,1.958,0.918,3.167"/>
		<path fill="none" stroke="#000000" stroke-width="3.1091" stroke-linecap="round" d="M253.504,134.5
			c0.635-0.03,1.192-0.138,1.748-0.25"/>
		<path fill="none" stroke="#000000" stroke-width="2.1712" stroke-linecap="round" d="M252.17,130.167
			c-0.234,0.918-0.168,2.118-0.125,3.139c0.24,0.362,0.84,0.777,1.459,1.194"/>
		<path fill="none" stroke="#000000" stroke-width="3.055" stroke-linecap="round" d="M253.504,139.5c0.744,0,1.701,0,2.666,0"/>
		<path fill="none" stroke="#000000" stroke-width="2.1381" stroke-linecap="round" d="M253.504,134.5c-0.586,1.667-0.516,3.333,0,5
			"/>
		<path fill="none" stroke="#000000" stroke-width="1.8439" stroke-linecap="round" d="M253.504,139.5c-0.815,2.574-0.369,5.728,1,8
			"/>
		<path fill="none" stroke="#000000" stroke-width="5.0497" stroke-linecap="round" d="M251.504,176.5
			c0.275,0.055,0.555,0.109,0.832,0.165"/>
		<path fill="none" stroke="#000000" stroke-width="2.5131" stroke-linecap="round" d="M252.336,176.665
			c1.98-3.669,4.178-8.021,3.168-12.165"/>
		<path fill="none" stroke="#000000" stroke-width="2.4495" stroke-linecap="round" d="M46.104,175.1c-0.918,3.368-0.075,7.985,3,10
			"/>
		<path fill="none" stroke="#000000" stroke-width="3.266" stroke-linecap="round" d="M253.36,178.714
			c-0.486,0.851-0.658,1.836-0.855,2.786"/>
		<path fill="none" stroke="#000000" stroke-width="2.9326" stroke-linecap="round" d="M263.504,184.5
			c-0.657-0.339-2.02-0.934-3-1.335"/>
		<path fill="none" stroke="#000000" stroke-width="2.3452" stroke-linecap="round" d="M260.103,182.898
			c-0.75,0.974-1.042,2.321-1.599,3.602"/>
		<path fill="none" stroke="#000000" stroke-width="3.0912" stroke-linecap="round" d="M244.67,195.665
			c2.168-1.026,3.511-3.26,4.834-5.165"/>
		<path fill="none" stroke="#000000" stroke-width="1.7541" stroke-linecap="round" d="M57.004,198.75
			c0.035-2.7-1.03-5.553-3.75-6.5"/>
		<path fill="none" stroke="#000000" stroke-width="2.1602" stroke-linecap="round" d="M237.004,206.75
			c0.647,0.146,1.617,0.418,2.5,0.75"/>
		<path fill="none" stroke="#000000" stroke-width="3.0822" stroke-linecap="round" d="M43.504,207.5
			c1.333,0.053,2.666-0.059,4-0.335"/>
		<path fill="none" stroke="#000000" stroke-width="3.266" stroke-linecap="round" d="M199.647,244.785
			c1.518-0.971,3.501-1.496,4.256-1.686"/>
		<path fill="none" stroke="#000000" stroke-width="2.3184" stroke-linecap="round" d="M203.903,243.1
			c4.975-5.365,12.512-7.182,16.602-13.6"/>
		<path fill="none" stroke="#000000" stroke-width="2.6578" stroke-linecap="round" d="M166.252,255.5
			c8.957,0.473,16.869-3.984,25.252-6"/>
		<path fill="none" stroke="#000000" stroke-width="3.1091" stroke-linecap="round" d="M205.868,250.045
			c-1.256,0.298-2.277,0.498-3.363,0.788"/>
		<path fill="none" stroke="#000000" stroke-width="3.0984" stroke-linecap="round" d="M111.504,251.5c-1,0.02-2-0.152-3-0.334"/>
		<path fill="none" stroke="#000000" stroke-width="2.7961" stroke-linecap="round" d="M131.504,254.5
			c6.515,4.098,16.578,4.367,24,2"/>
		<path fill="none" stroke="#000000" stroke-width="5" stroke-linecap="round" d="M155.504,256.5c-0.002-0.334,0-0.667-0.002-1"/>
		<path fill="none" stroke="#000000" stroke-width="1.7728" stroke-linecap="round" d="M155.502,255.5
			c-6.344-3.865-14.778-1.48-21.999-2.5"/>
		<path fill="none" stroke="#000000" stroke-width="3.1091" stroke-linecap="round" d="M155.504,256.5
			c3.297,2.002,7.609,0.486,10.748-1"/>
		<path fill="none" stroke="#000000" stroke-width="4.062" stroke-linecap="round" d="M166.252,255.5
			c-0.137-0.607-0.193-1.059-0.248-1.5"/>
		<path fill="none" stroke="#000000" stroke-width="1.9685" stroke-linecap="round" d="M109.504,265.5c1.914-0.914,3.926-2.135,5-4"
			/>
		<path fill="none" stroke="#000000" stroke-width="1.5089" stroke-linecap="round" d="M176.004,61c3.646,3.483,8.847,4.399,13.5,6"
			/>
		<path fill="none" stroke="#000000" stroke-width="1.3519" stroke-linecap="round" d="M59.504,135.5c-0.307-4.786,2.87-9.223,2-14"
			/>
		<path fill="none" stroke="#000000" stroke-width="1.8708" stroke-linecap="round" d="M66.004,191.75
			c-5.48-15.861-9.895-32.025-7.5-49.25"/>
		<path fill="none" stroke="#000000" stroke-width="1.8147" stroke-linecap="round" d="M115.754,236.75
			c25.279,8.352,52.797,5.503,76.75-4.25"/>
		<path fill="none" stroke="#000000" stroke-width="1.7845" stroke-linecap="round" d="M192.504,232.5
			c18.765-12.633,35.66-28.55,43.5-51"/>
		<path fill="none" stroke="#000000" stroke-width="1.5413" stroke-linecap="round" d="M224.004,90c6.043,3.116,11.442,7.209,14,14"
			/>
		<path fill="none" stroke="#000000" stroke-width="2.0361" stroke-linecap="round" d="M238.504,108.5
			c9.352,14.033,10.998,34.736,10,52"/>
		<path fill="none" stroke="#000000" stroke-width="1.937" stroke-linecap="round" d="M233.504,110.5
			c7.91,20.512,12.022,44.405,4.5,66"/>
		<path fill="none" stroke="#000000" stroke-width="1.6408" stroke-linecap="round" d="M242.004,181
			c0.686-0.505,1.385-0.784,1.966-1.098c1.178-3.797,2.687-7.401,3.034-11.402"/>
		<path fill="none" stroke="#000000" stroke-width="1.6737" stroke-linecap="round" d="M62.004,194.665
			c-12.797-21.116-16.115-52.006-5-74.665"/>
		<path fill="none" stroke="#000000" stroke-width="1.4559" stroke-linecap="round" d="M57.004,120
			c5.744-24.19,26.292-49.277,50.166-56.5"/>
		<path fill="none" stroke="#000000" stroke-width="1.7238" stroke-linecap="round" d="M107.17,63.5
			c18.538-13.694,46.095-14.05,68.334-8.5"/>
		<path fill="none" stroke="#000000" stroke-width="1.2259" stroke-linecap="round" d="M179.504,56.5
			c15.109,2.626,28.021,12.7,40,22"/>
		<path fill="none" stroke="#000000" stroke-width="1.3771" stroke-linecap="round" d="M61.504,121.5
			c9.255-22.8,27.232-41.089,47.25-54.25"/>
		<path fill="none" stroke="#000000" stroke-width="1.5639" stroke-linecap="round" d="M108.754,67.25
			c11.485-2.596,24.006-6.982,36.25-9.25"/>
		<path fill="none" stroke="#000000" stroke-width="1.8974" stroke-linecap="round" d="M145.004,58c-0.65-0.708-1.619-1.162-2.5-1.5
			"/>
		<path fill="none" stroke="#000000" stroke-width="2.225" stroke-linecap="round" d="M145.004,58c10.094,0.54,21.176,2.842,31,3"/>
		<path fill="none" stroke="#000000" stroke-width="1.6763" stroke-linecap="round" d="M62.004,194.665
			c8.771,21.724,29.49,39.765,51.75,47.335"/>
		<path fill="none" stroke="#000000" stroke-width="2.7613" stroke-linecap="round" d="M113.754,242c0.207-1.984,2.011-3.174,2-5.25
			"/>
		<path fill="none" stroke="#000000" stroke-width="1.5708" stroke-linecap="round" d="M115.754,236.75
			c-19.322-10.511-38.509-23.9-48.25-43.75"/>
		<path fill="none" stroke="#000000" stroke-width="2.1762" stroke-linecap="round" d="M113.754,242
			c0.055,0.168,0.11,0.338,0.165,0.507c22.929,9.878,51.71,8.284,74.583-2.007"/>
		<path fill="none" stroke="#000000" stroke-width="1.6638" stroke-linecap="round" d="M195.504,237
			c3.935-1.049,11.806-6.049,16.931-10.574c13.175-11.637,29.688-32.424,29.569-45.426"/>
		<path fill="none" stroke="#000000" stroke-width="1.9197" stroke-linecap="round" d="M80.504,101.5
			c8.053-8.646,16.043-18.219,27-23"/>
		<path fill="none" stroke="#000000" stroke-width="3.1091" stroke-linecap="round" d="M110.647,76.785
			c0.9-0.18,1.891-0.371,2.857-0.619"/>
		<path fill="none" stroke="#000000" stroke-width="2.3071" stroke-linecap="round" d="M120.504,72.5
			c13.869-6.095,32.338-9.333,46.599-3.6"/>
		<path fill="none" stroke="#000000" stroke-width="3.8514" stroke-linecap="round" d="M167.103,68.9
			c1.533-0.036,2.976,0.4,4.401,0.933"/>
		<path fill="none" stroke="#000000" stroke-width="1.472" stroke-linecap="round" d="M119.504,68.5
			c18.605-6.856,41.023-8.425,59.667-0.333"/>
		<path fill="none" stroke="#000000" stroke-width="1.4761" stroke-linecap="round" d="M179.17,68.167
			c3.604,0.545,8.478,1.954,10.334,5.333"/>
		<path fill="none" stroke="#000000" stroke-width="1.5242" stroke-linecap="round" d="M189.504,73.5
			c2.406-1.464,4.562,1.243,6.168,2.53c-0.062,0.392-0.205,0.905-0.35,1.424c-0.162,0.238-0.324,0.475-0.486,0.713"/>
		<path fill="none" stroke="#000000" stroke-width="2.0216" stroke-linecap="round" d="M194.836,78.167
			c8.254,5.057,15.498,12.116,22,19"/>
		<path fill="none" stroke="#000000" stroke-width="1.1922" stroke-linecap="round" d="M216.836,97.167
			c0.861-0.429,1.438-0.744,1.828-1.209c-3.156-4.703-7.205-9.825-12.16-12.458"/>
		<path fill="none" stroke="#000000" stroke-width="2.2361" stroke-linecap="round" d="M216.836,97.167
			c0.771,1.735,1.809,3.498,3.416,4.583"/>
		<path fill="none" stroke="#000000" stroke-width="1.4832" stroke-linecap="round" d="M220.252,101.75
			c3.379-2.111,4.886,2.949,5.752,5.25"/>
		<path fill="none" stroke="#000000" stroke-width="1.2367" stroke-linecap="round" d="M226.004,107c2.525,1.768,3.127,5.162,4,8"/>
		<path fill="none" stroke="#000000" stroke-width="1.834" stroke-linecap="round" d="M230.004,115
			c1.347,1.715,3.067,4.147,0.897,6.1"/>
		<path fill="none" stroke="#000000" stroke-width="4.1231" stroke-linecap="round" d="M230.903,121.1
			c0.012,0.038,0.02,0.076,0.028,0.114"/>
		<path fill="none" stroke="#000000" stroke-width="1.6159" stroke-linecap="round" d="M230.931,121.214
			c0.94,0.402,1.463,0.632,1.967,0.854c0.613,2.636,2.229,5.038,2.106,7.933"/>
		<path fill="none" stroke="#000000" stroke-width="1.6997" stroke-linecap="round" d="M235.004,130
			c0.465,1.522,1.215,3.191,0.832,4.833"/>
		<path fill="none" stroke="#000000" stroke-width="1.75" stroke-linecap="round" d="M235.836,134.833
			c0.73,2.682,1.603,5.879,0.668,8.667"/>
		<path fill="none" stroke="#000000" stroke-width="1.3784" stroke-linecap="round" d="M236.504,143.5c1.322,1.6,1.479,4.423,0,6"/>
		<path fill="none" stroke="#000000" stroke-width="1.8629" stroke-linecap="round" d="M232.385,170.322
			c2.896,2.554,1.175,7.562-1.881,9.178"/>
		<path fill="none" stroke="#000000" stroke-width="2.0656" stroke-linecap="round" d="M202.836,215.833
			c-2.98,1.254-5.137,3.914-8.332,4.667"/>
		<path fill="none" stroke="#000000" stroke-width="1.5275" stroke-linecap="round" d="M193.252,225
			c0.646-0.18,1.42-0.391,2.252-0.5"/>
		<path fill="none" stroke="#000000" stroke-width="1.2247" stroke-linecap="round" d="M84.004,208c-0.948-0.387-1.395-1.271-2-2"/>
		<path fill="none" stroke="#000000" stroke-width="2.189" stroke-linecap="round" d="M65.504,141.5
			c1.452-4.005,0.092-9.43,3.75-12.25"/>
		<path fill="none" stroke="#000000" stroke-width="2.1448" stroke-linecap="round" d="M72.504,117.5c0.478-2.095,1.502-3.902,2-6"
			/>
		<path fill="none" stroke="#000000" stroke-width="1.2383" stroke-linecap="round" d="M65.504,125.5
			c2.383-4.797,3.22-10.292,6.5-14.5"/>
		<path fill="none" stroke="#000000" stroke-width="1.3315" stroke-linecap="round" d="M109.504,72.5
			c-11.11,7.554-23.64,15.205-30.5,27.5"/>
		<path fill="none" stroke="#000000" stroke-width="2.1213" stroke-linecap="round" d="M179.17,68.167
			c-0.092,0.302-0.131,0.812-0.166,1.333"/>
		<path fill="none" stroke="#000000" stroke-width="3.1623" stroke-linecap="round" d="M189.504,73.5
			c-0.084,0.25-0.168,0.5-0.252,0.75"/>
		<path fill="none" stroke="#000000" stroke-width="2.7252" stroke-linecap="round" d="M126.504,91.5
			c12.832-4.041,26.161-4.605,39.5-3"/>
		<path fill="none" stroke="#000000" stroke-width="2.273" stroke-linecap="round" d="M166.004,88.5
			c-0.937-1.714-1.457-4.055,0.099-5.6"/>
		<path fill="none" stroke="#000000" stroke-width="2.1506" stroke-linecap="round" d="M165.504,81.5c0.871-1.622,1.549-3.21,2-5"/>
		<path fill="none" stroke="#000000" stroke-width="2.5355" stroke-linecap="round" d="M167.103,68.9
			c-2.122,1.897-0.776,4.664,1,6.2"/>
		<path fill="none" stroke="#000000" stroke-width="2.0665" stroke-linecap="round" d="M169.504,90.5
			c14.723,5.752,25.91,17.681,34.748,30.25"/>
		<path fill="none" stroke="#000000" stroke-width="2.2962" stroke-linecap="round" d="M204.252,120.75
			c2.225-1.21,4.283-2.644,6.395-4.036"/>
		<path fill="none" stroke="#000000" stroke-width="2.6629" stroke-linecap="round" d="M210.647,116.714
			c1.01-2.365,4.165-1.164,5.857-2.714"/>
		<path fill="none" stroke="#000000" stroke-width="2.1742" stroke-linecap="round" d="M194.836,78.167
			c-2.098-1.062-4.588-1.378-5.584-3.917"/>
		<path fill="none" stroke="#000000" stroke-width="2.4615" stroke-linecap="round" d="M189.252,74.25
			c-3.381,0.467-6.342-2.484-9.748-2.75"/>
		<path fill="none" stroke="#000000" stroke-width="2.0487" stroke-linecap="round" d="M90.504,127.5
			c6.594-13.261,17.01-24.472,29.25-32.75"/>
		<path fill="none" stroke="#000000" stroke-width="2.2678" stroke-linecap="round" d="M119.754,94.75
			c-0.961-1.559-1.647-3.282-2.75-4.75"/>
		<path fill="none" stroke="#000000" stroke-width="1.2649" stroke-linecap="round" d="M116.004,88c-0.372-0.962-0.517-2.15-1-3"/>
		<path fill="none" stroke="#000000" stroke-width="2.5495" stroke-linecap="round" d="M117.004,90c0.935-0.641,1.684-1.024,2.5-1.5
			"/>
		<path fill="none" stroke="#000000" stroke-width="2.625" stroke-linecap="round" d="M88.504,133.5
			c-1.418,13.764-1.984,28.986,4,42"/>
		<path fill="none" stroke="#000000" stroke-width="2.6721" stroke-linecap="round" d="M95.004,182
			c7.436,10.264,17.002,19.354,27.833,25.5"/>
		<path fill="none" stroke="#000000" stroke-width="3.1836" stroke-linecap="round" d="M131.504,210.5
			c13.131,4.277,26.894,2.559,40-1.335"/>
		<path fill="none" stroke="#000000" stroke-width="2.453" stroke-linecap="round" d="M182.504,203.5
			c9.918-8.232,18.887-18.217,24-30"/>
		<path fill="none" stroke="#000000" stroke-width="2.582" stroke-linecap="round" d="M209.004,164.5
			c3.979-12.282,0.927-24.968-1.5-37"/>
		<path fill="none" stroke="#000000" stroke-width="2.9721" stroke-linecap="round" d="M119.754,94.75
			c1.824-0.361,2.905-0.873,4.083-2.25"/>
		<path fill="none" stroke="#000000" stroke-width="3.6055" stroke-linecap="round" d="M222.79,108.357
			c0.143,0.095,0.287,0.19,0.43,0.286"/>
		<path fill="none" stroke="#000000" stroke-width="2.5226" stroke-linecap="round" d="M220.252,101.75
			c1.529,1.986,1.785,4.26,2.537,6.607"/>
		<path fill="none" stroke="#000000" stroke-width="1.5811" stroke-linecap="round" d="M226.004,107
			c-0.998,0.443-2.115,1.211-2.787,1.643"/>
		<path fill="none" stroke="#000000" stroke-width="2.1712" stroke-linecap="round" d="M222.79,108.357
			c-1.986,0.444-3.229,1.235-4.285,2.143"/>
		<path fill="none" stroke="#000000" stroke-width="3.3912" stroke-linecap="round" d="M210.647,116.714
			c0.559,1.133,0.82,1.892,1.189,2.786"/>
		<path fill="none" stroke="#000000" stroke-width="3.055" stroke-linecap="round" d="M227.504,119.167c1,0.572,2,1.186,3,1.667"/>
		<path fill="none" stroke="#000000" stroke-width="1.291" stroke-linecap="round" d="M230.004,115
			c-0.651,0.292-1.619,0.838-2.5,1.5"/>
		<path fill="none" stroke="#000000" stroke-width="2.8983" stroke-linecap="round" d="M204.252,120.75
			c0.361,1.824,0.873,2.905,2.252,4.083"/>
		<path fill="none" stroke="#000000" stroke-width="2.2361" stroke-linecap="round" d="M224.504,170.5c1.246-2.559,5.352-1.773,7,0"
			/>
		<path fill="none" stroke="#000000" stroke-width="5.099" stroke-linecap="round" d="M231.504,170.5
			c0.293-0.061,0.586-0.118,0.881-0.178"/>
		<path fill="none" stroke="#000000" stroke-width="5" stroke-linecap="round" d="M232.385,170.322
			c0.039-0.053,0.078-0.104,0.117-0.157"/>
		<path fill="none" stroke="#000000" stroke-width="2.4495" stroke-linecap="round" d="M232.502,170.165
			c0.402-2.597-0.121-5.69,2.002-7.665"/>
		<path fill="none" stroke="#000000" stroke-width="1.5811" stroke-linecap="round" d="M232.504,131.5
			c1.026-0.672,1.771-0.992,2.5-1.5"/>
		<path fill="none" stroke="#000000" stroke-width="2.3887" stroke-linecap="round" d="M230.931,121.214
			c-0.925,3.673,1.321,6.713,1.573,10.286"/>
		<path fill="none" stroke="#000000" stroke-width="2" stroke-linecap="round" d="M69.254,129.25c1.323,1.327,3.455,2.291,5.25,1.25
			"/>
		<path fill="none" stroke="#000000" stroke-width="2.2136" stroke-linecap="round" d="M65.504,141.5
			c-0.999,1.963,0.144,4.415-1.25,6.25"/>
		<path fill="none" stroke="#000000" stroke-width="2.2942" stroke-linecap="round" d="M64.254,147.75
			c1.276,3.732,0.749,7.967,0.25,11.75"/>
		<path fill="none" stroke="#000000" stroke-width="2.2361" stroke-linecap="round" d="M69.504,180.5c0.809,0.523,1.409,1.257,2,2"
			/>
		<path fill="none" stroke="#000000" stroke-width="3.1623" stroke-linecap="round" d="M82.504,132.5
			c-0.167,0.055-0.334,0.111-0.5,0.167"/>
		<path fill="none" stroke="#000000" stroke-width="1.6658" stroke-linecap="round" d="M81.504,132.5c-1.667-1.143-3.334-1.74-5-3"
			/>
		<path fill="none" stroke="#000000" stroke-width="2.3452" stroke-linecap="round" d="M82.504,132.5c0.32-1,0.609-2,1-3"/>
		<path fill="none" stroke="#000000" stroke-width="2.2361" stroke-linecap="round" d="M82.504,132.5c1.886,0.941,4.122-0.001,6,1"
			/>
		<path fill="none" stroke="#000000" stroke-width="3.0331" stroke-linecap="round" d="M88.504,133.5
			c0.833-1.289,0.935-2.715,1.428-4.286"/>
		<path fill="none" stroke="#000000" stroke-width="2.1448" stroke-linecap="round" d="M232.504,131.5c0.369,1.333,0.515,2.667,1,4"
			/>
		<path fill="none" stroke="#000000" stroke-width="2.1602" stroke-linecap="round" d="M233.504,135.5
			c1.037-0.341,1.693-0.458,2.332-0.667"/>
		<path fill="none" stroke="#000000" stroke-width="3.1091" stroke-linecap="round" d="M234.752,143.75
			c0.529-0.137,1.139-0.195,1.752-0.25"/>
		<path fill="none" stroke="#000000" stroke-width="2.4083" stroke-linecap="round" d="M233.504,135.5
			c0.992,2.67-0.24,5.756,1.248,8.25"/>
		<path fill="none" stroke="#000000" stroke-width="1.627" stroke-linecap="round" d="M65.504,141.5
			c-0.848-0.054-1.714,0.063-2.592,0.305c-0.617,1.955-0.999,4.952,1.342,5.945"/>
		<path fill="none" stroke="#000000" stroke-width="3.0912" stroke-linecap="round" d="M234.752,143.75
			c-0.353,1.879-0.412,3.887,0.084,5.75"/>
		<path fill="none" stroke="#000000" stroke-width="2.0207" stroke-linecap="round" d="M232.502,170.165
			c2.81-0.603,4.103-4.198,3.002-6.665"/>
		<path fill="none" stroke="#000000" stroke-width="2.1381" stroke-linecap="round" d="M215.504,167.5
			c-1.334-0.451-2.668-0.432-4-0.5"/>
		<path fill="none" stroke="#000000" stroke-width="3.6968" stroke-linecap="round" d="M231.504,170.5
			c-0.646,1.238-0.896,1.953-1.287,2.855"/>
		<path fill="none" stroke="#000000" stroke-width="2.6186" stroke-linecap="round" d="M202.836,215.833
			c0.478-0.698,1.353-1.485,2.668-2.333"/>
		<path fill="none" stroke="#000000" stroke-width="1.954" stroke-linecap="round" d="M205.504,213.5
			c1.377-1.97,3.127-3.616,5.332-4.667"/>
		<path fill="none" stroke="#000000" stroke-width="2.3094" stroke-linecap="round" d="M210.836,208.833
			c1.011-2.528,3.022-4.778,5.668-5.668"/>
		<path fill="none" stroke="#000000" stroke-width="2.1026" stroke-linecap="round" d="M216.504,203.165
			c0.602-4.128,4.197-7.007,6.332-10.332"/>
		<path fill="none" stroke="#000000" stroke-width="2" stroke-linecap="round" d="M222.836,192.833
			c1.131-1.817,1.498-4.399,3.668-5.333"/>
		<path fill="none" stroke="#000000" stroke-width="2.4785" stroke-linecap="round" d="M90.504,184.833
			c2.017-1.341,3.394-1.996,4.5-2.833"/>
		<path fill="none" stroke="#000000" stroke-width="3.4641" stroke-linecap="round" d="M95.004,182c0.162-0.273-1.362-2.3-2.5-3.5"
			/>
		<path fill="none" stroke="#000000" stroke-width="1.6202" stroke-linecap="round" d="M68.004,181.5c0.632,1.324,0.085,3.42,2,3.75
			"/>
		<path fill="none" stroke="#000000" stroke-width="2.2361" stroke-linecap="round" d="M70.004,185.25c0.5-0.25,1-0.5,1.5-0.75"/>
		<path fill="none" stroke="#000000" stroke-width="1.9365" stroke-linecap="round" d="M83.504,204c0.947,0.424,1.394,1.426,2,2.5"
			/>
		<path fill="none" stroke="#000000" stroke-width="2.095" stroke-linecap="round" d="M98.504,218.5c3.561,1.532,6.708,3.796,10,6"
			/>
		<path fill="none" stroke="#000000" stroke-width="3.0822" stroke-linecap="round" d="M109.14,225.954
			c1.255-0.319,2.278-0.347,3.364-0.454"/>
		<path fill="none" stroke="#000000" stroke-width="1.5" stroke-linecap="round" d="M84.004,188c0.954-0.458,1.772-0.811,2.5-1"/>
		<path fill="none" stroke="#000000" stroke-width="1.6787" stroke-linecap="round" d="M70.004,185.25
			c-0.179,2.135,1.162,3.922,2,5.75"/>
		<path fill="none" stroke="#000000" stroke-width="1.5811" stroke-linecap="round" d="M72.004,191
			c0.995-0.443,2.114-1.212,2.785-1.645"/>
		<path fill="none" stroke="#000000" stroke-width="3.1091" stroke-linecap="round" d="M74.79,189.355
			c-0.181-0.899-0.371-1.891-0.619-2.855"/>
		<path fill="none" stroke="#000000" stroke-width="1.291" stroke-linecap="round" d="M222.836,192.833
			c0.795,0.438,1.517,0.737,2.168,1.167"/>
		<path fill="none" stroke="#000000" stroke-width="1.5954" stroke-linecap="round" d="M225.004,194c1.488-1.488,2.365-3.52,3-5.5"
			/>
		<path fill="none" stroke="#000000" stroke-width="1.4832" stroke-linecap="round" d="M72.004,191c0.364,1.131,1.585,2.53,2.5,3.5"
			/>
		<path fill="none" stroke="#000000" stroke-width="3.6055" stroke-linecap="round" d="M216.504,203.165
			c0.166,0.11,0.332,0.224,0.498,0.335"/>
		<path fill="none" stroke="#000000" stroke-width="1.5679" stroke-linecap="round" d="M217.002,203.5
			c4.24-1.236,6.133-5.87,8.002-9.5"/>
		<path fill="none" stroke="#000000" stroke-width="1.291" stroke-linecap="round" d="M210.836,208.833
			c0.795,0.438,1.517,0.737,2.168,1.167"/>
		<path fill="none" stroke="#000000" stroke-width="1.6787" stroke-linecap="round" d="M213.004,210
			c1.854-1.77,4.152-3.648,3.998-6.5"/>
		<path fill="none" stroke="#000000" stroke-width="1.4142" stroke-linecap="round" d="M205.504,213.5c0.5,0.5,1,1,1.5,1.5"/>
		<path fill="none" stroke="#000000" stroke-width="1.472" stroke-linecap="round" d="M207.004,215c2.488-0.702,4.662-2.807,6-5"/>
		<path fill="none" stroke="#000000" stroke-width="2.1213" stroke-linecap="round" d="M129.67,233
			c1.177-0.044,3.169-0.064,4.834,0.5"/>
		<path fill="none" stroke="#000000" stroke-width="2.6057" stroke-linecap="round" d="M154.504,234.833
			c3.242-1.16,6.699-0.537,10-1.333"/>
		<path fill="none" stroke="#000000" stroke-width="2.2361" stroke-linecap="round" d="M164.504,233.5
			c1.621-0.545,3.783-0.443,5.248-0.5"/>
		<path fill="none" stroke="#000000" stroke-width="2.1909" stroke-linecap="round" d="M177.504,230.5c0.98-1.425,2.016-1.282,3-3"
			/>
		<path fill="none" stroke="#000000" stroke-width="1.3301" stroke-linecap="round" d="M202.836,215.833
			c0.429,0.862,0.744,1.438,1.209,1.829c1.496-0.137,2.244-1.561,2.959-2.662"/>
		<path fill="none" stroke="#000000" stroke-width="1.9272" stroke-linecap="round" d="M125.504,222.5c1.11-1.136,1.814-2.598,2.5-4
			"/>
		<path fill="none" stroke="#000000" stroke-width="1.669" stroke-linecap="round" d="M179.504,232
			c4.806-1.35,10.322-3.507,13.748-7"/>
		<path fill="none" stroke="#000000" stroke-width="2.0548" stroke-linecap="round" d="M125.504,230.5c0.985-1.84,2.221-3.895,1-6"
			/>
		<path fill="none" stroke="#000000" stroke-width="2.1016" stroke-linecap="round" d="M109.504,227.5
			c1.627,1.939,4.389,3.072,6.856,2.714"/>
		<path fill="none" stroke="#000000" stroke-width="1.6371" stroke-linecap="round" d="M116.361,230.214
			c2.963,3.242,8.666,5.124,13.144,4.286"/>
		<path fill="none" stroke="#000000" stroke-width="3.0822" stroke-linecap="round" d="M129.504,234.5
			c0.019-0.607,0.091-1.059,0.166-1.5"/>
		<path fill="none" stroke="#000000" stroke-width="2.6992" stroke-linecap="round" d="M129.67,233
			c-0.761-0.725-2.589-1.111-4.166-2.5"/>
		<path fill="none" stroke="#000000" stroke-width="2.9439" stroke-linecap="round" d="M125.504,230.5c-1.516,0.17-2.72-0.443-4-1"
			/>
		<path fill="none" stroke="#000000" stroke-width="1.9685" stroke-linecap="round" d="M129.504,234.5
			c1.714,1.155,2.531,1.383,4,1.5"/>
		<path fill="none" stroke="#000000" stroke-width="2.0615" stroke-linecap="round" d="M165.168,235.833
			c1.631,0.595,3.244-0.075,4.336-1.333"/>
		<path fill="none" stroke="#000000" stroke-width="1.732" stroke-linecap="round" d="M154.504,236.5
			c3.144,1.78,7.525,0.775,10.664-0.667"/>
		<path fill="none" stroke="#000000" stroke-width="2.1602" stroke-linecap="round" d="M165.168,235.833
			c-0.088-0.533-0.354-1.491-0.664-2.333"/>
		<path fill="none" stroke="#000000" stroke-width="2.095" stroke-linecap="round" d="M144.504,237.5c3.188,0.473,7.463,1.593,10-1"
			/>
		<path fill="none" stroke="#000000" stroke-width="3" stroke-linecap="round" d="M154.504,236.5c0-0.557,0-1.111,0-1.667"/>
		<path fill="none" stroke="#000000" stroke-width="2.6833" stroke-linecap="round" d="M154.504,234.833
			c-2.656-0.919-5.305,0.447-8,0.167"/>
		<path fill="none" stroke="#000000" stroke-width="1.3247" stroke-linecap="round" d="M195.504,70.5
			c10.244,5.072,18.705,13.463,26,22"/>
		<path fill="none" stroke="#000000" stroke-width="1.2111" stroke-linecap="round" d="M63.504,109.5c0.915-1.318,1.618-1.912,2-3"
			/>
	</g>
</g>
</svg>
